<?xml version="1.0" standalone="no"?>
<!DOCTYPE svg PUBLIC "-//W3C//DTD SVG 1.1//EN" "http://www.w3.org/Graphics/SVG/1.1/DTD/svg11.dtd" >
<svg xmlns="http://www.w3.org/2000/svg" xmlns:xlink="http://www.w3.org/1999/xlink" version="1.1">
<metadata>
Created by FontForge 20170731 at Wed Dec 29 22:12:47 2010
 By Aleksey,,,
Copyright (c) 2010 by Suomi Type Foundry, Suomi Finland. All rights reserved.
</metadata>
<defs>
<font id="Grumpy-Black24" horiz-adv-x="700" >
  <font-face 
    font-family="Grumpy 24"
    font-weight="900"
    font-stretch="normal"
    units-per-em="1000"
    panose-1="2 0 6 6 3 0 0 2 0 4"
    ascent="750"
    descent="-250"
    x-height="510"
    cap-height="680"
    bbox="-115 -240 1134 926"
    underline-thickness="20"
    underline-position="-180"
    unicode-range="U+0020-FB02"
  />
<missing-glyph horiz-adv-x="220" 
 />
    <glyph glyph-name="fi" unicode="fi" horiz-adv-x="790" 
d="M385 0h-370v40h20q50 0 50 50v380h-70v40q49 21 81 90q35 78 87 114t139 36t134.5 -38t47.5 -91q0 -38 -24.5 -63t-63.5 -25q-33 0 -55.5 20.5t-22.5 52.5q0 44 -12.5 62.5t-41.5 18.5q-22 0 -34 -13.5t-12 -33.5q0 -23 12 -45.5t30.5 -47t25.5 -37.5h109v-40h-100v-380
q0 -50 50 -50h20v-40zM775 0h-370v40h20q50 0 50 50v260l-70 70q65 20 156.5 56t143.5 64v-450q0 -50 50 -50h20v-40zM615 550q-41 0 -70.5 29.5t-29.5 70.5t29.5 70.5t70.5 29.5t70.5 -29.5t29.5 -70.5t-29.5 -70.5t-70.5 -29.5z" />
    <glyph glyph-name="fl" unicode="fl" horiz-adv-x="790" 
d="M775 0h-370v40h20q50 0 50 50v489q-26 -36 -73 -36q-32 0 -53 20.5t-21 52.5q0 71 -48 71q-20 0 -31 -13.5t-11 -33.5q0 -23 12 -45.5t30.5 -47t25.5 -37.5h109v-40h-100v-380q0 -50 50 -50h20v-40h-370v40h20q50 0 50 50v380h-70v40q49 21 81 90q35 79 84 114.5
t135 35.5q57 0 105 -24t64 -60q138 50 221 94v-670q0 -50 50 -50h20v-40z" />
    <glyph glyph-name=".notdef" horiz-adv-x="220" 
 />
    <glyph glyph-name=".null" horiz-adv-x="0" 
 />
    <glyph glyph-name="nonmarkingreturn" horiz-adv-x="333" 
 />
    <glyph glyph-name="space" unicode=" " horiz-adv-x="220" 
 />
    <glyph glyph-name="exclam" unicode="!" horiz-adv-x="270" 
d="M180 250h-50v29q0 31 -45 137.5t-45 162.5q0 50 31.5 85.5t83.5 35.5t83.5 -35.5t31.5 -85.5q0 -56 -45 -162.5t-45 -137.5v-29zM155 -20q-48 0 -81.5 33.5t-33.5 81.5t33.5 81.5t81.5 33.5t81.5 -33.5t33.5 -81.5t-33.5 -81.5t-81.5 -33.5z" />
    <glyph glyph-name="quotedbl" unicode="&#x22;" horiz-adv-x="357" 
d="M118 375h-55v21q0 21 -24 100.5t-24 119.5q0 36 20 60t56 24t55.5 -24t19.5 -60q0 -40 -24 -119.5t-24 -100.5v-21zM294 375h-55v21q0 21 -24 100.5t-24 119.5q0 36 20 60t56 24t55.5 -24t19.5 -60q0 -40 -24 -119.5t-24 -100.5v-21z" />
    <glyph glyph-name="numbersign" unicode="#" horiz-adv-x="370" 
d="M234 0h-60l27 250h-60l-27 -250h-60l27 250h-71v70h80l5 50h-75v70h84l27 240h60l-27 -240h60l27 240h60l-27 -240h76v-70h-85l-5 -50h80v-70h-89zM210 320l5 50h-60l-5 -50h60z" />
    <glyph glyph-name="dollar" unicode="$" horiz-adv-x="540" 
d="M294 -100h-50v80q-146 0 -234 50v170h44q79 -157 190 -160v186q-113 44 -171 101t-58 147q0 87 62 148t167 74v84h50v-80q114 0 196 -50v-170h-44q-63 146 -152 159v-182q111 -36 173.5 -93t62.5 -151t-68.5 -153.5t-167.5 -74.5v-85zM244 478v155q-50 -21 -50 -71
q0 -30 11 -49t39 -35zM294 199v-150q45 20 45 72q0 45 -45 78z" />
    <glyph glyph-name="percent" unicode="%" horiz-adv-x="641" 
d="M80 0h-70l481 593v2q-34 -24 -76 -24q-36 0 -72 17q10 -33 10 -66q0 -79 -44.5 -128.5t-126.5 -49.5t-127 49.5t-45 128.5t45 128.5t127 49.5q55 0 106 -30q2 -1 25.5 -19.5t50.5 -31.5t55 -13q71 0 111 43l23 31h78zM460 -20q-82 0 -127 49.5t-45 128.5t45 128.5
t127 49.5t126.5 -49.5t44.5 -128.5t-44.5 -128.5t-126.5 -49.5zM460 26q30 0 30 132t-30 132t-30 -132t30 -132zM182 390q30 0 30 132t-30 132t-30 -132t30 -132z" />
    <glyph glyph-name="ampersand" unicode="&#x26;" horiz-adv-x="748" 
d="M514 593q0 -53 -41.5 -95.5t-113.5 -86.5q52 -129 141 -229q25 43 25 72q0 25 -17 40.5t-35 15.5h-13v40h245v-40h-15q-49 0 -97 -70l-62 -90q56 -53 95 -53q24 0 44 10.5t29.5 20.5t24.5 31l29 -15q-93 -164 -239 -164q-53 0 -112 40q-75 -40 -175 -40q-105 0 -161 52.5
t-56 126.5q0 135 154 209q-23 71 -23 116q0 96 59 156t165 60q69 0 109 -28.5t40 -78.5zM342 71q-102 102 -165 259q-24 -31 -24 -62q0 -80 46 -139t108 -59q24 0 35 1zM409 584q0 62 -39 62q-46 0 -46 -78q0 -47 18 -113q30 25 48.5 60t18.5 69z" />
    <glyph glyph-name="quotesingle" unicode="'" horiz-adv-x="181" 
d="M118 375h-55v21q0 21 -24 100.5t-24 119.5q0 36 20 60t56 24t55.5 -24t19.5 -60q0 -40 -24 -119.5t-24 -100.5v-21z" />
    <glyph glyph-name="parenleft" unicode="(" horiz-adv-x="409" 
d="M404 -95l-19 -35q-175 44 -270 170.5t-95 265.5t95 265.5t270 170.5l19 -35q-69 -53 -106 -161.5t-37 -239.5t37 -239.5t106 -161.5z" />
    <glyph glyph-name="parenright" unicode=")" horiz-adv-x="409" 
d="M24 -130l-19 35q69 53 106 161.5t37 239.5t-37 239.5t-106 161.5l19 35q175 -44 270 -170.5t95 -265.5t-95 -265.5t-270 -170.5z" />
    <glyph glyph-name="asterisk" unicode="*" horiz-adv-x="449" 
d="M236 437q6 -18 42.5 -73t36.5 -84q0 -20 -13.5 -35t-38.5 -15q-18 0 -29.5 10t-17 30.5t-7 36.5t-2.5 44q0 44 -7 73q-15 -12 -41.5 -46t-52 -57.5t-49.5 -23.5q-18 0 -32.5 15t-14.5 34q0 29 27.5 46.5t72.5 32.5t66 31q-13 7 -60 24t-76.5 36.5t-29.5 46.5q0 22 16 36
t33 14q24 0 47.5 -23t50 -57t43.5 -47q6 22 7.5 77.5t13 86t44.5 30.5q23 0 37 -14t14 -34q0 -27 -37.5 -85.5t-42.5 -70.5q26 0 78 14.5t74 14.5q23 0 39.5 -13t16.5 -37q0 -23 -16.5 -36.5t-39.5 -13.5q-27 0 -80.5 15t-71.5 17z" />
    <glyph glyph-name="plus" unicode="+" horiz-adv-x="350" 
d="M210 210h-70v120h-120v70h120v120h70v-120h120v-70h-120v-120z" />
    <glyph glyph-name="comma" unicode="," horiz-adv-x="270" 
d="M20 -170l-6 57q48 7 84.5 32t42.5 61q-52 0 -86.5 30.5t-34.5 74.5q0 45 29 75.5t76 30.5q57 0 93 -36.5t36 -101.5q0 -85 -73.5 -154t-160.5 -69z" />
    <glyph glyph-name="hyphen" unicode="-" horiz-adv-x="230" 
d="M210 270h-190v70h190v-70z" />
    <glyph glyph-name="period" unicode="." horiz-adv-x="270" 
d="M135 -20q-48 0 -81.5 33.5t-33.5 81.5t33.5 81.5t81.5 33.5t81.5 -33.5t33.5 -81.5t-33.5 -81.5t-81.5 -33.5z" />
    <glyph glyph-name="slash" unicode="/" horiz-adv-x="330" 
d="M50 -100h-90l320 880h90z" />
    <glyph glyph-name="zero" unicode="0" horiz-adv-x="650" 
d="M325 -20q-146 0 -225.5 101t-79.5 259t79.5 259t225.5 101t225.5 -101t79.5 -259t-79.5 -259t-225.5 -101zM325 40q26 0 40 22.5t21.5 88.5t7.5 189q0 122 -8 188.5t-22 89t-39 22.5q-26 0 -40 -22.5t-21.5 -88.5t-7.5 -189q0 -122 8 -188.5t22 -89t39 -22.5z" />
    <glyph glyph-name="one" unicode="1" horiz-adv-x="465" 
d="M440 0h-395v40h20q25 0 42.5 16.5t17.5 43.5v350l-100 100l335 160v-610q0 -30 17 -45t43 -15h20v-40z" />
    <glyph glyph-name="two" unicode="2" horiz-adv-x="590" 
d="M495 0h-490l66 64q87 85 153.5 186.5t66.5 187.5q0 70 -33.5 103t-77.5 33t-76 -22t-48 -59l-36 15q27 81 97 136.5t188 55.5q99 0 163.5 -56.5t64.5 -146.5q0 -95 -71.5 -178.5t-197.5 -141.5v-2h89q84 0 131 25t62 95h39z" />
    <glyph glyph-name="three" unicode="3" horiz-adv-x="596" 
d="M164 331v40q64 5 101.5 35.5t37.5 80.5q0 41 -27 64t-68 23q-75 0 -117 -70l-34 19q89 177 266 177q93 0 152.5 -43.5t59.5 -115.5q0 -50 -25 -84.5t-58 -48.5q134 -76 134 -193q0 -75 -47.5 -130t-118.5 -80t-153 -25q-75 0 -130.5 18.5t-83.5 47.5t-40.5 56t-12.5 51
q0 36 21 62t65 26q31 0 51 -20t25 -53q22 -129 105 -129q34 0 58.5 29.5t24.5 79.5q0 84 -55 133.5t-131 49.5z" />
    <glyph glyph-name="four" unicode="4" horiz-adv-x="611" 
d="M581 0h-395v40h20q25 0 42.5 16.5t17.5 43.5v75h-240l-21 43l375 483l121 -40v-427h110v-59h-110v-75q0 -30 17 -45t43 -15h20v-40zM266 234v234l-192 -234h192z" />
    <glyph glyph-name="five" unicode="5" horiz-adv-x="566" 
d="M448 505h-301l-3 -33q206 0 309 -65.5t103 -177.5q0 -113 -91.5 -181t-212.5 -68q-131 0 -191.5 52t-60.5 121q0 36 21 62t65 26q31 0 51 -20t25 -53q12 -69 31.5 -99t58.5 -30q30 0 49 24t19 57q0 89 -59 131t-188 50l45 379h188q48 0 69 1t47.5 5.5t39 15t18.5 28.5h37
z" />
    <glyph glyph-name="six" unicode="6" horiz-adv-x="615" 
d="M449 700l15 -34q-152 -89 -194 -258q56 38 130 38q78 0 141.5 -57.5t63.5 -161.5q0 -105 -77 -176t-218 -71q-73 0 -131 24t-93 64t-53 88t-18 100q0 72 24.5 136t65.5 112.5t97 88.5t118 66t129 41zM257 333q-6 -49 -6 -106q0 -101 13.5 -144t45.5 -43q59 0 59 159
q0 72 -13.5 109t-47.5 37q-25 0 -51 -12z" />
    <glyph glyph-name="seven" unicode="7" horiz-adv-x="630" 
d="M375 0h-240q0 47 15.5 108.5t46.5 133t88.5 142t131.5 119.5v2h-180q-84 0 -131 -25t-62 -95h-39l80 295h540q-115 -115 -182.5 -307.5t-67.5 -372.5z" />
    <glyph glyph-name="eight" unicode="8" horiz-adv-x="590" 
d="M431 409q149 -77 149 -194q0 -108 -92.5 -171.5t-218.5 -63.5q-112 0 -185.5 47.5t-73.5 123.5q0 49 36.5 88.5t98.5 62.5q-125 68 -125 177q0 103 81.5 162t189.5 59q103 0 167.5 -46t64.5 -121q0 -43 -24.5 -75t-67.5 -49zM194 272q-62 -51 -62 -116q0 -45 37 -80.5
t98 -35.5q57 0 93.5 23.5t36.5 61.5q0 36 -25.5 57.5t-102.5 55.5q-26 11 -75 34zM333 460l33 -14q35 40 35 87q0 45 -30 76t-80 31q-41 0 -70 -22t-29 -52q0 -36 22 -51.5t119 -54.5z" />
    <glyph glyph-name="nine" unicode="9" horiz-adv-x="615" 
d="M156 -20l-15 34q80 35 133 100t70 146q-54 -36 -129 -36q-77 0 -141 61t-64 163q0 105 77 178.5t212 73.5q75 0 134 -24t95 -65.5t54 -92.5t18 -108q0 -112 -64.5 -206t-164 -150.5t-215.5 -73.5zM357 336q7 58 7 112q0 102 -14 147t-45 45q-59 0 -59 -164
q0 -151 61 -151q26 0 50 11z" />
    <glyph glyph-name="colon" unicode=":" horiz-adv-x="270" 
d="M135 -20q-48 0 -81.5 33.5t-33.5 81.5t33.5 81.5t81.5 33.5t81.5 -33.5t33.5 -81.5t-33.5 -81.5t-81.5 -33.5zM135 280q-48 0 -81.5 33.5t-33.5 81.5t33.5 81.5t81.5 33.5t81.5 -33.5t33.5 -81.5t-33.5 -81.5t-81.5 -33.5z" />
    <glyph glyph-name="semicolon" unicode=";" horiz-adv-x="270" 
d="M20 -170l-6 57q48 7 84.5 32t42.5 61q-52 0 -86.5 30.5t-34.5 74.5q0 45 29 75.5t76 30.5q57 0 93 -36.5t36 -101.5q0 -85 -73.5 -154t-160.5 -69zM135 280q-48 0 -81.5 33.5t-33.5 81.5t33.5 81.5t81.5 33.5t81.5 -33.5t33.5 -81.5t-33.5 -81.5t-81.5 -33.5z" />
    <glyph glyph-name="less" unicode="&#x3c;" horiz-adv-x="350" 
d="M294 182l-274 158v50l274 158l20 -38l-207 -145l207 -145z" />
    <glyph glyph-name="equal" unicode="=" horiz-adv-x="350" 
d="M330 390h-310v70h310v-70zM330 270h-310v70h310v-70z" />
    <glyph glyph-name="greater" unicode="&#x3e;" horiz-adv-x="350" 
d="M314 340l-274 -158l-20 38l207 145l-207 145l20 38l274 -158v-50z" />
    <glyph glyph-name="question" unicode="?" horiz-adv-x="560" 
d="M254 230h-45q-8 25 -8 62q0 34 18 68t39 58t39 62.5t18 80.5q0 37 -17 58.5t-48 21.5q-40 0 -61.5 -34t-21.5 -95q0 -32 -21.5 -52.5t-54.5 -20.5q-44 0 -65 26t-21 62q0 25 12.5 51.5t41 55.5t88 47.5t141.5 18.5q114 0 190.5 -56t76.5 -149q0 -75 -57 -110.5
t-162 -43.5q-82 -7 -82 -91v-20zM250 -20q-48 0 -81.5 33.5t-33.5 81.5t33.5 81.5t81.5 33.5t81.5 -33.5t33.5 -81.5t-33.5 -81.5t-81.5 -33.5z" />
    <glyph glyph-name="at" unicode="@" horiz-adv-x="905" 
d="M487 174v116q-49 -29 -49 -103q0 -41 24 -41q10 0 17.5 8.5t7.5 19.5zM554 -2l14 -29q-86 -68 -242 -68q-149 0 -230 85.5t-81 219.5q0 172 139 288t340 116q188 0 292 -88.5t104 -216.5q0 -102 -68.5 -175.5t-156.5 -73.5q-72 0 -110 26t-45 56q-49 -64 -134 -64
q-102 0 -102 92q0 93 213 152v57q0 44 -40 44q-16 0 -28 -11.5t-12 -32.5q0 -5 5 -37q0 -17 -16 -32.5t-40 -15.5q-28 0 -42.5 16t-14.5 41q0 43 44 77t131 34q91 0 132.5 -37.5t41.5 -93.5v-203q0 -24 17 -24q9 0 18.5 16t18 60t8.5 107q0 274 -216 274q-129 0 -205 -90.5
t-76 -260.5q0 -118 61.5 -174t166.5 -56q63 0 113 22z" />
    <glyph glyph-name="A" unicode="A" horiz-adv-x="740" 
d="M755 0h-411v40h20q23 0 38.5 11.5t15.5 30.5q0 26 -13 65l-15 45h-190l-3 -10q-28 -76 -28 -97q0 -45 55 -45h13v-40h-252v40h15q76 0 102 70l168 439l-18 55q124 56 198 101l204 -595q24 -70 86 -70h15v-40zM373 242l-74 219l-80 -219h154z" />
    <glyph glyph-name="B" unicode="B" horiz-adv-x="695" 
d="M376 0h-366v40h20q28 0 44 15.5t16 44.5v480q0 29 -16 44.5t-44 15.5h-20v40h390q130 0 187.5 -41t57.5 -109q0 -115 -129 -166v-2q83 -15 128.5 -59.5t45.5 -105.5q0 -100 -85 -148.5t-229 -48.5zM357 323h-32v-233q0 -20 13 -33t33 -13q32 0 60.5 31t28.5 108
q0 44 -10.5 74.5t-28.5 43.5t-32.5 17.5t-31.5 4.5zM325 373h8q11 0 22.5 4.5t26.5 16.5t24 40.5t9 70.5q0 43 -7 70t-20.5 38t-24.5 14t-28 3h-10v-257z" />
    <glyph glyph-name="C" unicode="C" horiz-adv-x="595" 
d="M585 210v-185q-31 -19 -92.5 -32t-117.5 -13q-166 0 -265.5 101t-99.5 255t101.5 259t263.5 105q56 0 115 -13t90 -32v-185h-39q-53 175 -142 175q-148 0 -148 -309q0 -71 10 -126.5t25.5 -87.5t36 -52.5t39 -27.5t37.5 -7q94 0 147 175h39z" />
    <glyph glyph-name="D" unicode="D" horiz-adv-x="760" 
d="M378 630h-53v-525q0 -55 57 -55q53 0 92.5 67.5t39.5 222.5q0 290 -136 290zM405 0h-395v40h20q25 0 42.5 16t17.5 44v480q0 28 -17.5 44t-42.5 16h-20v40h405q161 0 248 -92.5t87 -247.5q0 -154 -91.5 -247t-253.5 -93z" />
    <glyph glyph-name="E" unicode="E" horiz-adv-x="665" 
d="M600 0h-590v40h20q25 0 42.5 16t17.5 44v480q0 27 -17.5 43.5t-42.5 16.5h-20v40h570l50 -215h-44q-46 87 -93 126t-111 39h-57v-261h83q29 0 44.5 17.5t15.5 42.5v20h45v-209h-45v20q0 25 -15.5 42.5t-44.5 17.5h-83v-210q0 -60 57 -60q130 0 234 195h44z" />
    <glyph glyph-name="F" unicode="F" horiz-adv-x="645" 
d="M405 0h-395v40h20q25 0 42.5 16t17.5 44v480q0 29 -17.5 44.5t-42.5 15.5h-20v40h600l30 -235h-44q-31 100 -74.5 142.5t-109.5 42.5h-87v-281h93q29 0 44.5 17.5t15.5 42.5v20h45v-209h-45v20q0 25 -15.5 42.5t-44.5 17.5h-93v-200q0 -28 17.5 -44t42.5 -16h20v-40z" />
    <glyph glyph-name="G" unicode="G" 
d="M695 300h-10q-18 0 -29 -11.5t-11 -28.5v-204q-125 -76 -270 -76q-166 0 -265.5 101t-99.5 255q0 153 106 258.5t269 105.5q57 0 121 -13t94 -32v-205h-39q-39 97 -76 146t-95 49q-25 0 -47 -14t-44 -46.5t-35 -96t-13 -152.5q0 -88 11.5 -151t30.5 -93.5t38.5 -43.5
t40.5 -13q52 0 52 58v147q0 30 -17.5 45t-42.5 15h-20v40h351v-40z" />
    <glyph glyph-name="H" unicode="H" horiz-adv-x="830" 
d="M820 0h-395v40h20q26 0 43 15t17 45v220h-180v-220q0 -30 17 -45t43 -15h20v-40h-395v40h20q26 0 43 15t17 45v480q0 28 -17.5 44t-42.5 16h-20v40h395v-40h-20q-25 0 -42.5 -16t-17.5 -44v-210h180v210q0 28 -17.5 44t-42.5 16h-20v40h395v-40h-20q-25 0 -42.5 -16
t-17.5 -44v-480q0 -30 17 -45t43 -15h20v-40z" />
    <glyph glyph-name="I" unicode="I" horiz-adv-x="415" 
d="M405 0h-395v40h20q25 0 42.5 16.5t17.5 43.5v480q0 28 -17.5 44t-42.5 16h-20v40h395v-40h-20q-25 0 -42.5 -16t-17.5 -44v-480q0 -30 17 -45t43 -15h20v-40z" />
    <glyph glyph-name="J" unicode="J" horiz-adv-x="580" 
d="M260 103v477q0 30 -17.5 45t-42.5 15h-20v40h395v-40h-20q-25 0 -42.5 -15.5t-17.5 -44.5v-412q0 -37 -13 -68.5t-42 -59.5t-83.5 -44t-128.5 -16q-112 0 -167.5 48.5t-55.5 111.5q0 35 23 60t62 25q34 0 55 -23.5t21 -47.5q-7 -42 -7 -59q0 -31 13.5 -47t36.5 -16t37 18
t14 53z" />
    <glyph glyph-name="K" unicode="K" horiz-adv-x="820" 
d="M815 0h-305l-183 307h-2v-207q0 -30 17 -45t43 -15h20v-40h-395v40h20q26 0 43 15t17 45v480q0 29 -17.5 44.5t-42.5 15.5h-20v40h395v-40h-20q-25 0 -42.5 -16t-17.5 -44v-207l80 76q131 124 131 166q0 25 -42 25h-18v40h284v-40h-15q-64 0 -139 -69l-130 -121l238 -360
q32 -50 81 -50h20v-40z" />
    <glyph glyph-name="L" unicode="L" horiz-adv-x="645" 
d="M580 0h-570v40h20q25 0 42.5 15t17.5 45v480q0 28 -17.5 44t-42.5 16h-20v40h395v-40h-20q-25 0 -42.5 -15.5t-17.5 -44.5v-475q0 -55 57 -55q61 0 113 51t101 144h44z" />
    <glyph glyph-name="M" unicode="M" horiz-adv-x="900" 
d="M895 0h-395v40h20q26 0 43.5 14.5t16.5 45.5l-18 425h-2l-188 -545l-214 501h-2l-16 -381q-1 -28 17 -44t43 -16h20v-40h-215v40h20q25 0 42 15.5t18 44.5l20 480q1 28 -17 44t-43 16h-20v40h299l121 -311h2l99 311h329v-40h-20q-27 0 -44 -16t-16 -44l20 -480
q3 -60 60 -60h20v-40z" />
    <glyph glyph-name="N" unicode="N" horiz-adv-x="685" 
d="M600 0h-143l-310 535h-2v-435q0 -30 17.5 -45t42.5 -15h20v-40h-215v40h20q25 0 42.5 15t17.5 45v480q0 28 -17.5 44t-42.5 16h-20v40h314l219 -382h2v282q0 29 -17.5 44.5t-42.5 15.5h-20v40h215v-40h-20q-25 0 -42.5 -16t-17.5 -44v-580z" />
    <glyph glyph-name="O" unicode="O" 
d="M350 -20q-160 0 -250 101.5t-90 258.5t90 258.5t250 101.5t250 -101.5t90 -258.5t-90 -258.5t-250 -101.5zM350 30q31 0 51.5 24.5t34 95.5t13.5 190t-13.5 190t-34 95.5t-51.5 24.5t-51.5 -24.5t-34 -95.5t-13.5 -190t13.5 -190t34 -95.5t51.5 -24.5z" />
    <glyph glyph-name="P" unicode="P" horiz-adv-x="665" 
d="M350 630h-25v-271q0 -41 36 -41q14 0 28 11.5t27.5 49t13.5 95.5q0 85 -24 120.5t-56 35.5zM405 0h-395v40h20q28 0 44 15.5t16 44.5v480q0 60 -60 60h-20v40h405q128 0 186.5 -53t58.5 -133q0 -106 -84.5 -163t-225.5 -57h-25v-174q0 -60 60 -60h20v-40z" />
    <glyph glyph-name="Q" unicode="Q" 
d="M690 340q0 -117 -51.5 -206t-146.5 -128q4 -101 22 -149t57 -48q22 0 34.5 15t12.5 43q0 25 -8 54q0 21 18.5 40t48.5 19q32 0 50.5 -20t18.5 -52q0 -51 -46 -99.5t-138 -48.5q-183 0 -217 220q-105 1 -182 49.5t-115 129t-38 181.5q0 157 90 258.5t250 101.5t250 -101.5
t90 -258.5zM243 337q0 -57 1 -82q46 62 123 62q35 0 70 -23v43q0 122 -10.5 192t-28.5 95.5t-48 25.5q-107 0 -107 -313zM264 157q0 -62 22.5 -92.5t53.5 -34.5q-3 44 -3 87q0 105 -36 105q-37 0 -37 -65z" />
    <glyph glyph-name="R" unicode="R" horiz-adv-x="775" 
d="M800 50v-40q-63 -20 -163 -20q-91 0 -147.5 30.5t-93.5 113.5l-69 155h-2v-189q0 -30 17 -45t43 -15h20v-40h-395v40h20q26 0 43 14.5t17 45.5v480q0 29 -17.5 44.5t-42.5 15.5h-20v40h461q110 0 163.5 -48.5t53.5 -124.5q0 -63 -38.5 -112t-87.5 -68l63 -123
q50 -99 82 -129t62 -30zM350 630h-25v-256q0 -30 36 -30q13 0 27.5 11t28 45.5t13.5 86.5q0 143 -80 143z" />
    <glyph glyph-name="S" unicode="S" horiz-adv-x="540" 
d="M490 480h-44q-68 160 -166 160q-35 0 -60.5 -22.5t-25.5 -55.5q0 -41 23.5 -64t90.5 -46q106 -37 164 -92.5t58 -146.5q0 -108 -89.5 -170.5t-204.5 -62.5q-72 0 -132.5 15.5t-93.5 34.5v170h44q81 -160 194 -160q43 0 67 23t24 58q0 36 -25.5 61.5t-79.5 47.5
q-110 45 -164.5 100.5t-54.5 143.5q0 98 77.5 162t203.5 64q112 0 194 -50v-170z" />
    <glyph glyph-name="T" unicode="T" horiz-adv-x="695" 
d="M545 0h-395v40h20q25 0 42.5 15t17.5 45v530q-16 0 -35 -7.5t-44 -26t-52 -60.5t-50 -101h-44l40 245h605l40 -245h-44q-43 111 -92.5 153t-88.5 42v-530q0 -30 17.5 -45t42.5 -15h20v-40z" />
    <glyph glyph-name="U" unicode="U" horiz-adv-x="695" 
d="M555 202v378q0 29 -17.5 44.5t-42.5 15.5h-20v40h215v-40h-20q-25 0 -42.5 -16t-17.5 -44v-373q0 -108 -73.5 -168t-188.5 -60q-114 0 -188.5 64t-74.5 172v365q0 28 -17.5 44t-42.5 16h-20v40h395v-40h-20q-25 0 -42.5 -15.5t-17.5 -44.5v-378q0 -53 32 -88t85 -35
t85.5 35.5t32.5 87.5z" />
    <glyph glyph-name="V" unicode="V" horiz-adv-x="715" 
d="M345 -20l-259 590q-30 70 -86 70h-20v40h411v-40h-20q-23 0 -37 -10.5t-14 -29.5q0 -28 15 -67l92 -236l81 201q28 71 28 97q0 45 -55 45h-13v40h267v-40h-20q-27 0 -56.5 -18t-45.5 -52z" />
    <glyph glyph-name="W" unicode="W" horiz-adv-x="1015" 
d="M677 -20l-166 384l-171 -384l-254 590q-30 70 -86 70h-20v40h406v-40h-20q-23 0 -37 -10.5t-14 -29.5q0 -28 15 -67l87 -233l165 407l163 -385l63 176q27 74 27 98q0 44 -54 44h-13v40h267v-40h-20q-28 0 -58 -17.5t-44 -52.5z" />
    <glyph glyph-name="X" unicode="X" horiz-adv-x="680" 
d="M700 0h-416v40h20q58 0 58 44q0 26 -22 63l-60 99l-66 -88q-39 -51 -39 -81q0 -37 59 -37h13v-40h-267v40h20q24 0 53.5 19t53.5 51l143 186l-164 274q-41 70 -86 70h-20v40h416v-40h-20q-57 0 -57 -45q0 -28 21 -62l60 -100l66 89q38 52 38 81q0 37 -58 37h-13v40h267
v-40h-20q-24 0 -53.5 -19t-53.5 -51l-144 -186l165 -274q42 -70 86 -70h20v-40z" />
    <glyph glyph-name="Y" unicode="Y" 
d="M557 0h-395v40h20q25 0 42.5 15t17.5 45v194l-156 276q-40 70 -86 70h-20v40h419v-40h-20q-52 0 -52 -47q0 -37 26 -83l69 -138l65 138q30 62 30 83q0 47 -50 47h-19v40h272v-40h-20q-25 0 -52 -18t-45 -52l-126 -227v-243q0 -30 17.5 -45t42.5 -15h20v-40z" />
    <glyph glyph-name="Z" unicode="Z" horiz-adv-x="640" 
d="M630 0h-630l362 630h-81q-83 0 -142.5 -36.5t-75.5 -108.5h-44l46 195h575l-359 -630h117q161 0 193 145h39v-195z" />
    <glyph glyph-name="bracketleft" unicode="[" horiz-adv-x="350" 
d="M345 -120h-315v833h315v-40h-50q-25 0 -42.5 -16t-17.5 -44v-633q0 -30 17 -45t43 -15h50v-40z" />
    <glyph glyph-name="backslash" unicode="\" horiz-adv-x="330" 
d="M370 -100h-90l-320 880h90z" />
    <glyph glyph-name="bracketright" unicode="]" horiz-adv-x="350" 
d="M320 -120h-315v40h50q26 0 43 15t17 45v633q0 28 -17.5 44t-42.5 16h-50v40h315v-833z" />
    <glyph glyph-name="asciicircum" unicode="^" horiz-adv-x="374" 
d="M370 238l-38 -20l-145 207l-145 -207l-38 20l158 274h50z" />
    <glyph glyph-name="underscore" unicode="_" horiz-adv-x="250" 
d="M250 -140h-250v40h250v-40z" />
    <glyph glyph-name="grave" unicode="`" horiz-adv-x="510" 
d="M345 579l-19 -24q-51 11 -77 17.5t-65.5 22t-58 37.5t-18.5 51q0 28 24.5 47.5t61.5 19.5z" />
    <glyph glyph-name="a" unicode="a" horiz-adv-x="630" 
d="M587 96v59h43v-56q0 -46 -38.5 -82.5t-106.5 -36.5q-109 0 -127 102q-36 -50 -82 -76t-118 -26q-70 0 -109 32t-39 92q0 70 70 124t235 101v81q0 63 -57 63q-23 0 -39.5 -16.5t-16.5 -46.5q0 -12 6 -54q0 -23 -23.5 -45.5t-57.5 -22.5q-39 0 -59.5 23.5t-20.5 58.5
q0 63 62.5 111.5t187.5 48.5q130 0 189 -54.5t59 -133.5v-246q0 -28 21 -28t21 28zM315 118v170q-36 -21 -53 -64t-17 -86q0 -62 34 -62q16 0 26 12t10 30z" />
    <glyph glyph-name="b" unicode="b" horiz-adv-x="664" 
d="M151 50l-62 -50h-29v570l-70 70q65 20 156.5 56t143.5 64v-294q22 27 59 45.5t73 18.5q109 0 170.5 -74t61.5 -186q0 -130 -82 -210t-218 -80q-52 0 -93.5 12t-60 23.5t-49.5 34.5zM353 47q32 0 48.5 42.5t16.5 155.5t-16.5 155.5t-48.5 42.5q-21 0 -34 -14t-21 -58.5
t-8 -125.5q0 -115 15.5 -156.5t47.5 -41.5z" />
    <glyph glyph-name="c" unicode="c" horiz-adv-x="511" 
d="M505 102v-49q-88 -73 -221 -73q-121 0 -197.5 75.5t-76.5 185.5q0 131 81 210t222 79q101 0 147 -45t46 -98q0 -36 -21 -62t-65 -26q-33 0 -54.5 20.5t-21.5 52.5q0 85 -58 85q-65 0 -65 -108q0 -139 54 -211t131 -72q55 0 99 36z" />
    <glyph glyph-name="d" unicode="d" horiz-adv-x="685" 
d="M311 67q33 0 48.5 40.5t15.5 157.5q0 79 -8.5 124t-21.5 59.5t-34 14.5t-34.5 -15t-22 -60t-8.5 -123t8.5 -123t22 -60t34.5 -15zM675 0h-290v53q-24 -29 -63.5 -51t-79.5 -22q-109 0 -170.5 74t-61.5 186q0 130 82 210t218 80q30 0 65 -10v50l-70 70q65 20 156.5 56
t143.5 64v-670q0 -50 50 -50h20v-40z" />
    <glyph glyph-name="e" unicode="e" horiz-adv-x="520" 
d="M515 102v-49q-43 -36 -90 -54.5t-125 -18.5q-132 0 -211 75t-79 186q0 129 77 209t202 80q116 0 171 -68.5t55 -179.5h-286q11 -108 59.5 -162t113.5 -54q69 0 113 36zM226 322h63q45 0 45 50q0 85 -50 85q-27 0 -42.5 -28t-15.5 -80v-27z" />
    <glyph glyph-name="f" unicode="f" horiz-adv-x="400" 
d="M385 0h-370v40h20q50 0 50 50v380h-70v40q49 21 81 90q35 77 88.5 113.5t140.5 36.5t136 -38t49 -91q0 -38 -24.5 -63t-63.5 -25q-32 0 -53 20.5t-21 52.5q0 44 -14.5 62.5t-46.5 18.5q-22 0 -35.5 -13.5t-13.5 -33.5q0 -23 12 -45.5t30.5 -47t25.5 -37.5h79v-40h-70
v-380q0 -50 50 -50h20v-40z" />
    <glyph glyph-name="g" unicode="g" horiz-adv-x="552" 
d="M107 -71q-65 33 -65 93q0 70 81 130q-108 61 -108 171q0 98 71.5 152.5t186.5 54.5q22 0 43 -3q7 85 53.5 126.5t99.5 41.5q48 0 75.5 -27.5t27.5 -66.5q0 -36 -24 -61t-61 -25q-15 0 -27 6t-18 12t-13.5 16t-9.5 12q-15 16 -30 16q-11 0 -20.5 -16.5t-10.5 -41.5
q173 -45 173 -196q0 -95 -72.5 -151t-185.5 -56q-66 0 -116 19q-22 -17 -22 -38q0 -38 44 -38q30 0 107 21t124 21q63 0 109 -38.5t46 -106.5q0 -87 -79.5 -141.5t-189.5 -54.5q-97 0 -154.5 33t-57.5 78q0 29 23 58zM273 169q17 0 28.5 9t20.5 43.5t9 96.5t-9 96.5
t-20.5 43.5t-28.5 9t-28.5 -9t-20.5 -43.5t-9 -96.5t9 -96.5t20.5 -43.5t28.5 -9zM180 -88q-4 -7 -4 -17q0 -90 120 -90q64 0 96 23t32 57q0 55 -61 55q-31 0 -91 -14t-92 -14z" />
    <glyph glyph-name="h" unicode="h" horiz-adv-x="730" 
d="M720 0h-300v356q0 64 -50 64q-25 0 -42.5 -18t-17.5 -46v-266q0 -50 50 -50h20v-40h-370v40h20q50 0 50 50v480l-70 70q65 20 156.5 56t143.5 64v-310q66 80 177 80q81 0 122 -45t41 -115v-280q0 -50 50 -50h20v-40z" />
    <glyph glyph-name="i" unicode="i" horiz-adv-x="400" 
d="M200 520q-48 0 -81.5 33.5t-33.5 81.5t33.5 81.5t81.5 33.5t81.5 -33.5t33.5 -81.5t-33.5 -81.5t-81.5 -33.5zM385 0h-370v40h20q50 0 50 50v260l-70 70q65 20 156.5 56t143.5 64v-450q0 -50 50 -50h20v-40z" />
    <glyph glyph-name="j" unicode="j" horiz-adv-x="365" 
d="M200 520q-48 0 -81.5 33.5t-33.5 81.5t33.5 81.5t81.5 33.5t81.5 -33.5t33.5 -81.5t-33.5 -81.5t-81.5 -33.5zM85 69v281l-70 70q65 20 156.5 56t143.5 64v-540q0 -46 -12.5 -87.5t-39 -76.5t-72.5 -55.5t-106 -20.5q-94 0 -147 42.5t-53 96.5q0 38 25.5 63t64.5 25
q32 0 52 -20.5t20 -52.5q0 -86 55 -86q21 0 34 14t13 34q0 30 -32 90t-32 103z" />
    <glyph glyph-name="k" unicode="k" horiz-adv-x="715" 
d="M740 0h-300l-129 217h-1v-127q0 -50 50 -50h20v-40h-370v40h20q50 0 50 50v480l-70 70q65 20 156.5 56t143.5 64v-489l64 59q38 36 54.5 57.5t16.5 41.5q0 19 -11 30t-26 11h-13v40h265v-40h-15q-57 0 -134 -70l-47 -44l175 -266q32 -50 81 -50h20v-40z" />
    <glyph glyph-name="l" unicode="l" horiz-adv-x="400" 
d="M385 0h-370v40h20q50 0 50 50v480l-70 70q65 20 156.5 56t143.5 64v-670q0 -50 50 -50h20v-40z" />
    <glyph glyph-name="m" unicode="m" horiz-adv-x="1050" 
d="M1040 0h-300v356q0 64 -45 64q-22 0 -38.5 -16.5t-16.5 -42.5v-271q0 -50 50 -50h20v-40h-370v40h20q50 0 50 50v266q0 64 -45 64q-23 0 -39 -18t-16 -46v-356h-300v40h20q50 0 50 50v260l-70 70q61 19 148.5 55t141.5 65v-102q72 92 177 92q117 0 151 -93q74 93 179 93
q81 0 122 -45t41 -115v-280q0 -50 50 -50h20v-40z" />
    <glyph glyph-name="n" unicode="n" horiz-adv-x="730" 
d="M720 0h-300v356q0 64 -50 64q-25 0 -42.5 -18t-17.5 -46v-266q0 -50 50 -50h20v-40h-370v40h20q50 0 50 50v260l-70 70q61 19 148.5 55t141.5 65v-102q72 92 187 92q81 0 122 -45t41 -115v-280q0 -50 50 -50h20v-40z" />
    <glyph glyph-name="o" unicode="o" horiz-adv-x="619" 
d="M609 255q0 -120 -82 -197.5t-217 -77.5t-217.5 77.5t-82.5 197.5t82.5 197.5t217.5 77.5t217 -77.5t82 -197.5zM310 37q32 0 48 47t16 171t-16 171t-48 47t-48 -47t-16 -171q0 -123 16 -170.5t48 -47.5z" />
    <glyph glyph-name="p" unicode="p" horiz-adv-x="684" 
d="M380 -220h-370v40h20q50 0 50 50v480l-70 70q61 19 148.5 55t141.5 65v-83q24 29 63 51t79 22q109 0 170.5 -74t61.5 -186q0 -130 -82 -210t-218 -80q-29 0 -64 10v-120q0 -50 50 -50h20v-40zM373 47q21 0 34.5 15t22 60t8.5 123t-8.5 123t-22 60t-34.5 15t-34 -14
t-21 -58.5t-8 -125.5q0 -115 15.5 -156.5t47.5 -41.5z" />
    <glyph glyph-name="q" unicode="q" horiz-adv-x="659" 
d="M674 -220h-370v40h20q50 0 50 50v174q-22 -27 -59 -45.5t-73 -18.5q-109 0 -170.5 74t-61.5 186q0 130 82 210t218 80q44 0 83 -11.5t57 -22t53 -33.5l101 67v-660q0 -50 50 -50h20v-40zM311 67q21 0 34 13.5t21 58.5t8 126t-8 125.5t-21 58.5t-34 14q-32 0 -48.5 -43.5
t-16.5 -154.5t16.5 -154.5t48.5 -43.5z" />
    <glyph glyph-name="r" unicode="r" horiz-adv-x="550" 
d="M380 0h-370v40h20q50 0 50 50v260l-70 70q61 19 148.5 55t141.5 65v-102h2q22 38 57.5 65t79.5 27q49 0 80 -30.5t31 -69.5q0 -42 -23.5 -71.5t-67.5 -29.5q-12 0 -22.5 3.5t-20 11.5t-14.5 13.5t-14 17.5t-12 15q-16 18 -38 18q-28 0 -28 -48v-270q0 -50 50 -50h20v-40z
" />
    <glyph glyph-name="s" unicode="s" horiz-adv-x="460" 
d="M411 355h-44q-48 118 -139 118q-28 0 -44.5 -15t-16.5 -37q0 -23 16 -34t78 -33q98 -35 143.5 -78t45.5 -105q0 -88 -72.5 -139.5t-176.5 -51.5q-121 0 -191 40v135h44q28 -41 44.5 -61.5t46.5 -38.5t65 -18q31 0 51 15t20 41q0 18 -16 29.5t-69 33.5q-99 40 -140 84.5
t-41 103.5q0 85 67 135.5t169 50.5q39 0 84.5 -11t75.5 -29v-135z" />
    <glyph glyph-name="t" unicode="t" horiz-adv-x="380" 
d="M375 75v-49q-58 -46 -169 -46q-77 0 -114 42.5t-37 99.5v348h-45l275 230v-190h90v-40h-90v-365q0 -21 12 -32.5t30 -11.5q32 0 48 14z" />
    <glyph glyph-name="u" unicode="u" horiz-adv-x="725" 
d="M715 0h-290v70q-70 -90 -182 -90q-81 0 -122 45t-41 115v210l-70 70q65 20 156.5 56t143.5 64v-387q0 -63 49 -63q25 0 40.5 16.5t15.5 44.5v199l-70 70q65 20 156.5 56t143.5 64v-450q0 -50 50 -50h20v-40z" />
    <glyph glyph-name="v" unicode="v" horiz-adv-x="630" 
d="M306 -20l-215 420q-38 70 -91 70h-20v40h390v-40h-10q-41 0 -41 -33q0 -20 27 -82l45 -102l45 85q35 68 35 94q0 38 -51 38h-13v40h243v-40h-18q-67 0 -104 -70z" />
    <glyph glyph-name="w" unicode="w" horiz-adv-x="910" 
d="M621 -20l-177 287l-160 -287l-203 420q-34 70 -81 70h-20v40h390v-40h-20q-44 0 -44 -35q0 -18 30 -89l34 -79l150 263l167 -282l36 82q31 71 31 95q0 20 -14.5 32.5t-39.5 12.5h-13v40h243v-40h-18q-28 0 -51 -14t-43 -56z" />
    <glyph glyph-name="x" unicode="x" horiz-adv-x="647" 
d="M667 0h-420v40h10q44 0 44 35q0 30 -30 72l-31 45l-7 -10q-1 -2 -14.5 -19t-21 -27.5t-15.5 -26.5t-8 -28q0 -41 46 -41h13v-40h-253v40h8q55 0 116 70l108 124l-111 166q-27 40 -52.5 55t-58.5 15h-10v40h415v-40h-10q-46 0 -46 -37q0 -25 31 -70l32 -49l11 14
q1 2 14.5 19t21 27.5t15.5 26.5t8 28q0 41 -46 41h-13v40h253v-40h-8q-55 0 -116 -70l-111 -128l109 -162q24 -35 56 -52.5t61 -17.5h10v-40z" />
    <glyph glyph-name="y" unicode="y" horiz-adv-x="645" 
d="M665 470h-20q-64 0 -99 -70l-252 -501q-70 -139 -205 -139q-53 0 -86 28t-33 73q0 38 21.5 60.5t60.5 22.5q26 0 64.5 -25.5t72.5 -25.5q37 0 58 29t21 73q0 92 -56 192l-118 213q-19 33 -44.5 51.5t-49.5 18.5h-20v40h406v-40h-20q-41 0 -41 -36q0 -33 28 -85l56 -109
l44 90q36 74 36 101q0 39 -53 39h-13v40h242v-40z" />
    <glyph glyph-name="z" unicode="z" horiz-adv-x="540" 
d="M535 0h-535l270 470h-13q-81 0 -134 -36t-69 -109h-44l40 185h490l-268 -470h31q161 0 193 145h39v-185z" />
    <glyph glyph-name="braceleft" unicode="{" horiz-adv-x="249" 
d="M227 -140h-66q-67 0 -109 31.5t-42 84.5q0 56 38.5 136t38.5 113q0 19 -12.5 32.5t-29.5 13.5h-35v51h35q17 0 29.5 13.5t12.5 32.5q0 38 -38.5 116t-38.5 133q0 53 42 84.5t109 31.5h66v-40h-13q-20 0 -34 -11.5t-14 -35.5q0 -48 36.5 -122.5t36.5 -116.5q0 -34 -14 -58
t-28.5 -33.5t-35.5 -18.5v-1q21 -9 35.5 -18.5t28.5 -33.5t14 -58q0 -42 -36.5 -116.5t-36.5 -122.5q0 -24 14 -35.5t34 -11.5h13v-40z" />
    <glyph glyph-name="bar" unicode="|" horiz-adv-x="230" 
d="M160 -100h-90v880h90v-880z" />
    <glyph glyph-name="braceright" unicode="}" horiz-adv-x="249" 
d="M88 -140h-66v40h13q20 0 34 11.5t14 35.5q0 48 -36.5 122.5t-36.5 116.5q0 34 14 58t28.5 33.5t35.5 18.5v1q-21 9 -35.5 18.5t-28.5 33.5t-14 58q0 42 36.5 116.5t36.5 122.5q0 24 -14 35.5t-34 11.5h-13v40h66q67 0 109 -31.5t42 -84.5q0 -55 -38.5 -133t-38.5 -116
q0 -19 12.5 -32.5t29.5 -13.5h35v-51h-35q-17 0 -29.5 -13.5t-12.5 -32.5q0 -33 38.5 -113t38.5 -136q0 -53 -42 -84.5t-109 -31.5z" />
    <glyph glyph-name="asciitilde" unicode="~" horiz-adv-x="539" 
d="M476 420l43 -27q-30 -66 -58 -92q-40 -37 -92 -37q-47 0 -127 31.5t-110 31.5q-41 0 -69 -43l-43 27q30 66 58 92q39 37 92 37q47 0 126 -31.5t111 -31.5q41 0 69 43z" />
    <glyph glyph-name="uni00A0" unicode="&#xa0;" horiz-adv-x="220" 
 />
    <glyph glyph-name="exclamdown" unicode="&#xa1;" horiz-adv-x="270" 
d="M180 260v-29q0 -31 45 -137.5t45 -162.5q0 -50 -31.5 -85.5t-83.5 -35.5t-83.5 35.5t-31.5 85.5q0 56 45 162.5t45 137.5v29h50zM270 415q0 -48 -33.5 -81.5t-81.5 -33.5t-81.5 33.5t-33.5 81.5t33.5 81.5t81.5 33.5t81.5 -33.5t33.5 -81.5z" />
    <glyph glyph-name="cent" unicode="&#xa2;" horiz-adv-x="511" 
d="M505 182v-49q-76 -63 -183 -72v-61h-60v61q-112 7 -182 81t-70 179q0 118 67 194.5t185 91.5v73h60v-70q96 -3 140 -47t44 -96q0 -36 -21 -62t-65 -26q-33 0 -54.5 20.5t-21.5 52.5q0 53 -22 73v-354q38 -25 84 -25q55 0 99 36zM262 239v293q-41 -19 -41 -103
q0 -116 41 -190z" />
    <glyph glyph-name="sterling" unicode="&#xa3;" horiz-adv-x="609" 
d="M461 300h-78q20 -43 20 -87q0 -59 -51 -130q39 -37 70 -37q19 0 30.5 11t11.5 28q0 12 -6.5 24t-13.5 18l-6 6q0 23 22 45.5t55 22.5q37 0 60.5 -25t23.5 -64q0 -52 -42.5 -92t-108.5 -40q-81 0 -149 51q-73 -51 -157 -51q-63 0 -97.5 34.5t-34.5 84.5q0 45 37 79.5
t106 34.5q45 0 87 -27q-7 16 -21 32.5t-26.5 27t-35 28t-33.5 26.5h-83v40h41q-43 52 -43 123q0 109 86.5 173t207.5 64q96 0 178 -50v-170h-44q-31 81 -61.5 120.5t-72.5 39.5q-36 0 -57 -24.5t-21 -66.5q0 -29 11.5 -59.5t24 -49.5t36 -51.5t34.5 -48.5h100v-40zM238 84
q-35 28 -66 28q-19 0 -30.5 -9t-11.5 -23q0 -16 10.5 -28t31.5 -12q48 0 66 44z" />
    <glyph glyph-name="yen" unicode="&#xa5;" 
d="M547 0h-395v40h20q25 0 42.5 15t17.5 45v120h-182v50h182v50h-182v50h155l-119 200q-42 70 -86 70h-20v40h419v-40h-20q-52 0 -52 -47q0 -37 26 -83l59 -118l55 118q30 62 30 83q0 47 -50 47h-19v40h272v-40h-20q-25 0 -52 -18t-45 -52l-112 -200h178v-50h-182v-50h182
v-50h-182v-120q0 -30 17.5 -45t42.5 -15h20v-40z" />
    <glyph glyph-name="brokenbar" unicode="&#xa6;" horiz-adv-x="230" 
d="M160 387h-90v393h90v-393zM160 -100h-90v393h90v-393z" />
    <glyph glyph-name="section" unicode="&#xa7;" horiz-adv-x="378" 
d="M113 -20v43q37 0 58 19.5t21 49.5q0 23 -27 52t-59 54t-59 63.5t-27 77.5q0 73 101 125q-48 50 -48 105t63 93t129 38v-43q-37 0 -58 -19.5t-21 -49.5q0 -23 27 -52t59 -54t59 -63.5t27 -77.5q0 -73 -102 -125q49 -49 49 -105q0 -55 -63 -93t-129 -38zM161 428
q-28 -30 -28 -63q0 -22 14.5 -44.5t26 -32.5t42.5 -36q29 29 29 63q0 16 -5.5 30.5t-22 31.5t-24 23.5t-32.5 27.5z" />
    <glyph glyph-name="dieresis" unicode="&#xa8;" horiz-adv-x="510" 
d="M145 545q-35 0 -60 25t-25 60t25 60t60 25t60 -25t25 -60t-25 -60t-60 -25zM365 545q-35 0 -60 25t-25 60t25 60t60 25t60 -25t25 -60t-25 -60t-60 -25z" />
    <glyph glyph-name="copyright" unicode="&#xa9;" horiz-adv-x="609" 
d="M533 257q0 93 -66 157.5t-162 64.5q-98 0 -163.5 -64.5t-65.5 -157.5q0 -95 65.5 -160t163.5 -65q96 0 162 65t66 160zM371 228l55 -15q-14 -48 -45 -77.5t-76 -29.5q-64 0 -97.5 45.5t-33.5 102.5q0 59 33 105.5t97 46.5q48 0 78.5 -29t43.5 -77l-55 -13q-7 31 -25 48.5
t-40 17.5q-32 0 -52 -25t-20 -74q0 -46 21.5 -71t49.5 -25q21 0 40 17.5t26 52.5zM589 257q0 -116 -83 -196.5t-201 -80.5q-120 0 -202.5 80t-82.5 197q0 114 83 194t202 80q118 0 201 -80t83 -194z" />
    <glyph glyph-name="ordfeminine" unicode="&#xaa;" horiz-adv-x="459" 
d="M419 397v41h30v-39q0 -32 -27 -58t-75 -26q-76 0 -88 72q-54 -72 -140 -72q-104 0 -104 92t213 153v56q0 45 -39 45q-17 0 -28.5 -12t-11.5 -33q0 -5 5 -37q0 -16 -16.5 -32t-40.5 -16q-27 0 -41.5 16.5t-14.5 40.5q0 44 43.5 78t131.5 34q91 0 132 -38t41 -93v-172
q0 -20 15 -20t15 20zM228 412v119q-25 -14 -37 -44.5t-12 -60.5q0 -43 24 -43q11 0 18 8t7 21zM414 205h-379v70h379v-70z" />
    <glyph glyph-name="guillemotleft" unicode="&#xab;" horiz-adv-x="366" 
d="M161 97l-151 172v46l151 172q22 -8 22 -32q0 -23 -21.5 -63.5t-43.5 -69.5l-21 -30q10 -13 24 -33t38 -63.5t24 -66.5q0 -11 -5.5 -19t-11.5 -10zM334 97l-151 172v46l151 172q22 -8 22 -32q0 -23 -21.5 -63.5t-42.5 -69.5l-22 -30q10 -13 24 -33t38 -63.5t24 -66.5
q0 -11 -5.5 -19t-10.5 -10z" />
    <glyph glyph-name="logicalnot" unicode="&#xac;" horiz-adv-x="350" 
d="M318 210h-70v120h-228v70h298v-190z" />
    <glyph glyph-name="registered" unicode="&#xae;" horiz-adv-x="582" 
d="M572 426q0 -115 -82 -195.5t-199 -80.5q-118 0 -199.5 80.5t-81.5 195.5q0 113 82 193.5t199 80.5t199 -80.5t82 -193.5zM519 426q0 93 -66 158.5t-162 65.5t-162 -65.5t-66 -158.5q0 -95 65 -160.5t163 -65.5q96 0 162 65.5t66 160.5zM421 283h-60l-47 112h-69v-112h-56
v281h128q41 0 67.5 -22t26.5 -63q0 -54 -44 -73zM245 444h69q40 0 40 34q0 36 -39 36h-70v-70z" />
    <glyph glyph-name="macron" unicode="&#xaf;" horiz-adv-x="290" 
d="M260 588h-230v70h230v-70z" />
    <glyph glyph-name="degree" unicode="&#xb0;" horiz-adv-x="327" 
d="M302 567q0 -57 -40.5 -95.5t-97.5 -38.5t-98 38.5t-41 95.5q0 56 40.5 94.5t98.5 38.5t98 -38t40 -95zM250 567q0 38 -24 62t-62 24t-62 -24t-24 -62t24 -62t62 -24t62 24t24 62z" />
    <glyph glyph-name="plusminus" unicode="&#xb1;" horiz-adv-x="350" 
d="M210 260h-70v120h-120v70h120v120h70v-120h120v-70h-120v-120zM330 150h-310v70h310v-70z" />
    <glyph glyph-name="twosuperior" unicode="&#xb2;" horiz-adv-x="426" 
d="M353 210h-343l46 45q61 58 107.5 129.5t46.5 132.5q0 48 -23.5 71.5t-54.5 23.5q-62 0 -86 -57l-26 11q20 56 68.5 95t131.5 39q69 0 114.5 -39.5t45.5 -102.5q0 -67 -50.5 -125.5t-138.5 -98.5v-2h63q58 0 91 17.5t44 66.5h27z" />
    <glyph glyph-name="threesuperior" unicode="&#xb3;" horiz-adv-x="430" 
d="M125 442v28q45 4 71 25t26 56q0 29 -19 45t-48 16q-53 0 -81 -49l-24 13q62 124 186 124q65 0 106.5 -30.5t41.5 -80.5q0 -35 -17.5 -59t-40.5 -34q94 -53 94 -136q0 -78 -66.5 -121t-156.5 -43q-52 0 -91.5 13t-58.5 33t-28 39t-9 36q0 26 14.5 44t45.5 18q44 0 53 -51
q16 -91 74 -91q23 0 40.5 21t17.5 56q0 59 -38.5 93.5t-91.5 34.5z" />
    <glyph glyph-name="acute" unicode="&#xb4;" horiz-adv-x="510" 
d="M216 555l-19 24l152 171q37 0 61.5 -19.5t24.5 -47.5q0 -29 -18.5 -51t-58 -37.5t-65.5 -22t-77 -17.5z" />
    <glyph glyph-name="mu" unicode="&#xb5;" horiz-adv-x="725" 
d="M715 0h-290v70q-69 -89 -179 -90q34 -56 34 -99q0 -50 -31.5 -85.5t-83.5 -35.5t-83.5 35.5t-31.5 85.5q0 55 14.5 158t15.5 131v180l-70 70q65 20 156.5 56t143.5 64v-387q0 -63 49 -63q25 0 40.5 16.5t15.5 44.5v199l-70 70q65 20 156.5 56t143.5 64v-450q0 -50 50 -50
h20v-40z" />
    <glyph glyph-name="mu" unicode="&#x3bc;" horiz-adv-x="725" 
d="M715 0h-290v70q-69 -89 -179 -90q34 -56 34 -99q0 -50 -31.5 -85.5t-83.5 -35.5t-83.5 35.5t-31.5 85.5q0 55 14.5 158t15.5 131v180l-70 70q65 20 156.5 56t143.5 64v-387q0 -63 49 -63q25 0 40.5 16.5t15.5 44.5v199l-70 70q65 20 156.5 56t143.5 64v-450q0 -50 50 -50
h20v-40z" />
    <glyph glyph-name="paragraph" unicode="&#xb6;" horiz-adv-x="520" 
d="M430 -209h-60v799q0 50 -37 50q-36 0 -36 -50v-799h-60v563h-23q-83 0 -143.5 44.5t-60.5 124.5q0 62 51 109.5t129 47.5h320v-40h-20q-60 0 -60 -60v-789z" />
    <glyph glyph-name="periodcentered" unicode="&#xb7;" horiz-adv-x="270" 
d="M135 160q-48 0 -81.5 33.5t-33.5 81.5t33.5 81.5t81.5 33.5t81.5 -33.5t33.5 -81.5t-33.5 -81.5t-81.5 -33.5z" />
    <glyph glyph-name="cedilla" unicode="&#xb8;" horiz-adv-x="511" 
d="M109 -109l-33 13l52 132l33 -13l-30 -76q35 15 70 15q48 0 79.5 -25.5t31.5 -73.5q0 -43 -37 -73t-91 -30q-51 0 -77 17t-26 45q0 18 10 30.5t32 12.5q16 0 26.5 -10t10.5 -26q0 -40 31 -40q14 0 26 12.5t12 33.5q0 71 -71 71q-31 0 -49 -15z" />
    <glyph glyph-name="onesuperior" unicode="&#xb9;" horiz-adv-x="331" 
d="M311 214h-277v27h14q17 0 29.5 11.5t12.5 30.5v245l-70 70l235 112v-427q0 -21 12 -31.5t30 -10.5h14v-27z" />
    <glyph glyph-name="ordmasculine" unicode="&#xba;" horiz-adv-x="459" 
d="M439 508q0 -84 -57.5 -138.5t-151.5 -54.5q-95 0 -152.5 54.5t-57.5 138.5t57.5 138t152.5 54q94 0 151.5 -54t57.5 -138zM230 355q22 0 33.5 33t11.5 120q0 86 -11.5 119.5t-33.5 33.5t-33.5 -33.5t-11.5 -119.5t11.5 -119.5t33.5 -33.5zM419 205h-379v70h379v-70z" />
    <glyph glyph-name="guillemotright" unicode="&#xbb;" horiz-adv-x="366" 
d="M183 269l-151 -172q-22 8 -22 32q0 23 21.5 63.5t42.5 69.5l22 30q-10 13 -24 33t-38 63.5t-24 66.5q0 11 5.5 19t10.5 10l6 3l151 -172v-46zM356 269l-151 -172q-22 8 -22 32q0 23 21.5 63.5t43.5 69.5l21 30q-10 13 -24 33t-38 63.5t-24 66.5q0 11 5.5 19t11.5 10l5 3
l151 -172v-46z" />
    <glyph glyph-name="onequarter" unicode="&#xbc;" horiz-adv-x="837" 
d="M311 214h-277v27h14q17 0 29.5 11.5t12.5 30.5v245l-70 70l235 112v-427q0 -21 12 -31.5t30 -10.5h14v-27zM294 0h-60l326 680h60zM805 0h-276v28h14q17 0 29.5 11.5t12.5 30.5v53h-168l-15 30l262 338l85 -28v-299h77v-41h-77v-53q0 -21 12 -31.5t30 -10.5h14v-28z
M585 164v162l-129 -162h129z" />
    <glyph glyph-name="onehalf" unicode="&#xbd;" horiz-adv-x="909" 
d="M311 214h-277v27h14q17 0 29.5 11.5t12.5 30.5v245l-70 70l235 112v-427q0 -21 12 -31.5t30 -10.5h14v-27zM294 0h-60l326 680h60zM837 0h-343l46 45q61 58 107.5 129.5t46.5 132.5q0 48 -23.5 71.5t-54.5 23.5q-62 0 -86 -57l-26 11q20 56 68.5 95t131.5 39
q69 0 114.5 -39.5t45.5 -102.5q0 -67 -50.5 -125.5t-138.5 -98.5v-2h63q58 0 91 17.5t44 66.5h27z" />
    <glyph glyph-name="threequarters" unicode="&#xbe;" horiz-adv-x="896" 
d="M354 0h-60l326 680h60zM865 0h-276v28h14q17 0 29.5 11.5t12.5 30.5v53h-168l-15 30l262 338l85 -28v-299h77v-41h-77v-53q0 -21 12 -31.5t30 -10.5h14v-28zM645 164v162l-129 -162h129zM125 442v28q45 4 71 25t26 56q0 29 -19 45t-48 16q-53 0 -81 -49l-24 13
q62 124 186 124q65 0 106.5 -30.5t41.5 -80.5q0 -35 -17.5 -59t-40.5 -34q94 -53 94 -136q0 -78 -66.5 -121t-156.5 -43q-52 0 -91.5 13t-58.5 33t-28 39t-9 36q0 26 14.5 44t45.5 18q44 0 53 -51q16 -91 74 -91q23 0 40.5 21t17.5 56q0 59 -38.5 93.5t-91.5 34.5z" />
    <glyph glyph-name="questiondown" unicode="&#xbf;" horiz-adv-x="560" 
d="M306 260v20h45q8 -25 8 -62q0 -34 -18 -68t-39 -58t-39 -62.5t-18 -80.5q0 -37 17 -58.5t48 -21.5q40 0 61.5 34t21.5 95q0 32 21.5 52.5t54.5 20.5q44 0 65 -26t21 -62q0 -25 -12.5 -51.5t-41 -55.5t-88 -47.5t-141.5 -18.5q-114 0 -190.5 56t-76.5 149q0 75 57 110.5
t162 43.5q82 7 82 91zM425 415q0 -48 -33.5 -81.5t-81.5 -33.5t-81.5 33.5t-33.5 81.5t33.5 81.5t81.5 33.5t81.5 -33.5t33.5 -81.5z" />
    <glyph glyph-name="Agrave" unicode="&#xc0;" horiz-adv-x="740" 
d="M755 0h-411v40h20q23 0 38.5 11.5t15.5 30.5q0 26 -13 65l-15 45h-190l-3 -10q-28 -76 -28 -97q0 -45 55 -45h13v-40h-252v40h15q76 0 102 70l168 439l-18 55q124 56 198 101l204 -595q24 -70 86 -70h15v-40zM373 242l-74 219l-80 -219h154zM433 749l-19 -24
q-51 11 -77 17.5t-65.5 22t-58 37.5t-18.5 51q0 28 24.5 47.5t61.5 19.5z" />
    <glyph glyph-name="Aacute" unicode="&#xc1;" horiz-adv-x="740" 
d="M755 0h-411v40h20q23 0 38.5 11.5t15.5 30.5q0 26 -13 65l-15 45h-190l-3 -10q-28 -76 -28 -97q0 -45 55 -45h13v-40h-252v40h15q76 0 102 70l168 439l-18 55q124 56 198 101l204 -595q24 -70 86 -70h15v-40zM373 242l-74 219l-80 -219h154zM314 725l-19 24l152 171
q37 0 61.5 -19.5t24.5 -47.5q0 -29 -18.5 -51t-58 -37.5t-65.5 -22t-77 -17.5z" />
    <glyph glyph-name="Acircumflex" unicode="&#xc2;" horiz-adv-x="740" 
d="M755 0h-411v40h20q23 0 38.5 11.5t15.5 30.5q0 26 -13 65l-15 45h-190l-3 -10q-28 -76 -28 -97q0 -45 55 -45h13v-40h-252v40h15q76 0 102 70l168 439l-18 55q124 56 198 101l204 -595q24 -70 86 -70h15v-40zM373 242l-74 219l-80 -219h154zM536 723l-150 93l-150 -93
l-26 29l143 154h66l142 -154z" />
    <glyph glyph-name="Atilde" unicode="&#xc3;" horiz-adv-x="740" 
d="M755 0h-411v40h20q23 0 38.5 11.5t15.5 30.5q0 26 -13 65l-15 45h-190l-3 -10q-28 -76 -28 -97q0 -45 55 -45h13v-40h-252v40h15q76 0 102 70l168 439l-18 55q124 56 198 101l204 -595q24 -70 86 -70h15v-40zM373 242l-74 219l-80 -219h154zM553 853l33 -18
q-26 -56 -50 -77q-31 -28 -72 -28q-38 0 -104 30t-90 30q-30 0 -56 -40l-33 18q26 56 50 77q31 28 72 28q38 0 103 -30t91 -30q30 0 56 40z" />
    <glyph glyph-name="Adieresis" unicode="&#xc4;" horiz-adv-x="740" 
d="M755 0h-411v40h20q23 0 38.5 11.5t15.5 30.5q0 26 -13 65l-15 45h-190l-3 -10q-28 -76 -28 -97q0 -45 55 -45h13v-40h-252v40h15q76 0 102 70l168 439l-18 55q124 56 198 101l204 -595q24 -70 86 -70h15v-40zM373 242l-74 219l-80 -219h154zM279 695q-35 0 -60 25t-25 60
t25 60t60 25t60 -25t25 -60t-25 -60t-60 -25zM499 695q-35 0 -60 25t-25 60t25 60t60 25t60 -25t25 -60t-25 -60t-60 -25z" />
    <glyph glyph-name="Aring" unicode="&#xc5;" horiz-adv-x="740" 
d="M755 0h-411v40h20q23 0 38.5 11.5t15.5 30.5q0 26 -13 65l-15 45h-190l-3 -10q-28 -76 -28 -97q0 -45 55 -45h13v-40h-252v40h15q76 0 102 70l168 439l-18 55q124 56 198 101l204 -595q24 -70 86 -70h15v-40zM373 242l-74 219l-80 -219h154zM482 817q0 -46 -32.5 -78
t-79.5 -32t-80 32t-33 78t33 77.5t80 31.5t79.5 -31.5t32.5 -77.5zM427 817q0 25 -16 41t-41 16t-41 -16t-16 -41t16 -41t41 -16t41 16t16 41z" />
    <glyph glyph-name="AE" unicode="&#xc6;" horiz-adv-x="937" 
d="M872 0h-580v40h20q25 0 42.5 16t17.5 44v219h-72l-66 -137q-8 -20 -19.5 -43t-16.5 -36t-5 -26q0 -37 50 -37h13v-40h-251v40h15q74 0 110 70l222 439q11 22 11 46q0 21 -16 33t-35 12h-20v40h560l50 -215h-44q-46 87 -93 126t-111 39h-47v-261h73q29 0 44.5 17.5
t15.5 42.5v20h45v-209h-45v20q0 25 -15.5 42.5t-44.5 17.5h-73v-210q0 -60 52 -60q125 0 229 195h44zM372 369v92h-2l-45 -92h47z" />
    <glyph glyph-name="Ccedilla" unicode="&#xc7;" horiz-adv-x="590" 
d="M585 210v-185q-31 -19 -92.5 -32t-117.5 -13q-44 0 -87 8l-16 -41q35 15 70 15q48 0 79.5 -25.5t31.5 -73.5q0 -43 -37 -73t-91 -30q-51 0 -77 17t-26 45q0 18 10 30.5t32 12.5q16 0 26.5 -10t10.5 -26q0 -40 31 -40q14 0 26 12.5t12 33.5q0 71 -71 71q-31 0 -49 -15
l-33 13l36 93q-114 33 -178.5 124.5t-64.5 214.5q0 154 101.5 259t263.5 105q56 0 115 -13t90 -32v-185h-39q-26 86 -60.5 128t-81.5 42q-148 0 -148 -304q0 -88 14.5 -150.5t38.5 -92t47 -41.5t48 -12q95 0 147 170h39z" />
    <glyph glyph-name="Egrave" unicode="&#xc8;" horiz-adv-x="665" 
d="M600 0h-590v40h20q25 0 42.5 16t17.5 44v480q0 27 -17.5 43.5t-42.5 16.5h-20v40h570l50 -215h-44q-46 87 -93 126t-111 39h-57v-261h83q29 0 44.5 17.5t15.5 42.5v20h45v-209h-45v20q0 25 -15.5 42.5t-44.5 17.5h-83v-210q0 -60 57 -60q130 0 234 195h44zM428 749
l-19 -24q-51 11 -77 17.5t-65.5 22t-58 37.5t-18.5 51q0 28 24.5 47.5t61.5 19.5z" />
    <glyph glyph-name="Eacute" unicode="&#xc9;" horiz-adv-x="665" 
d="M600 0h-590v40h20q25 0 42.5 16t17.5 44v480q0 27 -17.5 43.5t-42.5 16.5h-20v40h570l50 -215h-44q-46 87 -93 126t-111 39h-57v-261h83q29 0 44.5 17.5t15.5 42.5v20h45v-209h-45v20q0 25 -15.5 42.5t-44.5 17.5h-83v-210q0 -60 57 -60q130 0 234 195h44zM253 725
l-19 24l152 171q37 0 61.5 -19.5t24.5 -47.5q0 -29 -18.5 -51t-58 -37.5t-65.5 -22t-77 -17.5z" />
    <glyph glyph-name="Ecircumflex" unicode="&#xca;" horiz-adv-x="665" 
d="M600 0h-590v40h20q25 0 42.5 16t17.5 44v480q0 27 -17.5 43.5t-42.5 16.5h-20v40h570l50 -215h-44q-46 87 -93 126t-111 39h-57v-261h83q29 0 44.5 17.5t15.5 42.5v20h45v-209h-45v20q0 25 -15.5 42.5t-44.5 17.5h-83v-210q0 -60 57 -60q130 0 234 195h44zM477 723
l-150 93l-150 -93l-26 29l143 154h66l142 -154z" />
    <glyph glyph-name="Edieresis" unicode="&#xcb;" horiz-adv-x="665" 
d="M600 0h-590v40h20q25 0 42.5 16t17.5 44v480q0 27 -17.5 43.5t-42.5 16.5h-20v40h570l50 -215h-44q-46 87 -93 126t-111 39h-57v-261h83q29 0 44.5 17.5t15.5 42.5v20h45v-209h-45v20q0 25 -15.5 42.5t-44.5 17.5h-83v-210q0 -60 57 -60q130 0 234 195h44zM216 715
q-35 0 -60 25t-25 60t25 60t60 25t60 -25t25 -60t-25 -60t-60 -25zM436 715q-35 0 -60 25t-25 60t25 60t60 25t60 -25t25 -60t-25 -60t-60 -25z" />
    <glyph glyph-name="Igrave" unicode="&#xcc;" horiz-adv-x="415" 
d="M405 0h-395v40h20q25 0 42.5 16.5t17.5 43.5v480q0 28 -17.5 44t-42.5 16h-20v40h395v-40h-20q-25 0 -42.5 -16t-17.5 -44v-480q0 -30 17 -45t43 -15h20v-40zM327 749l-19 -24q-51 11 -77 17.5t-65.5 22t-58 37.5t-18.5 51q0 28 24.5 47.5t61.5 19.5z" />
    <glyph glyph-name="Iacute" unicode="&#xcd;" horiz-adv-x="415" 
d="M405 0h-395v40h20q25 0 42.5 16.5t17.5 43.5v480q0 28 -17.5 44t-42.5 16h-20v40h395v-40h-20q-25 0 -42.5 -16t-17.5 -44v-480q0 -30 17 -45t43 -15h20v-40zM108 725l-19 24l152 171q37 0 61.5 -19.5t24.5 -47.5q0 -29 -18.5 -51t-58 -37.5t-65.5 -22t-77 -17.5z" />
    <glyph glyph-name="Icircumflex" unicode="&#xce;" horiz-adv-x="415" 
d="M405 0h-395v40h20q25 0 42.5 16.5t17.5 43.5v480q0 28 -17.5 44t-42.5 16h-20v40h395v-40h-20q-25 0 -42.5 -16t-17.5 -44v-480q0 -30 17 -45t43 -15h20v-40zM358 723l-150 93l-150 -93l-26 29l143 154h66l142 -154z" />
    <glyph glyph-name="Idieresis" unicode="&#xcf;" horiz-adv-x="415" 
d="M405 0h-395v40h20q25 0 42.5 16.5t17.5 43.5v480q0 28 -17.5 44t-42.5 16h-20v40h395v-40h-20q-25 0 -42.5 -16t-17.5 -44v-480q0 -30 17 -45t43 -15h20v-40zM98 715q-35 0 -60 25t-25 60t25 60t60 25t60 -25t25 -60t-25 -60t-60 -25zM318 715q-35 0 -60 25t-25 60t25 60
t60 25t60 -25t25 -60t-25 -60t-60 -25z" />
    <glyph glyph-name="Eth" unicode="&#xd0;" horiz-adv-x="760" 
d="M415 0h-405v40h20q25 0 42.5 16t17.5 44v202h-80v60h80v218q0 28 -17.5 44t-42.5 16h-20v40h405q161 0 248 -92.5t87 -247.5t-87 -247.5t-248 -92.5zM415 302h-90v-197q0 -55 57 -55q53 0 92.5 67.5t39.5 222.5q0 290 -136 290h-53v-268h90v-60z" />
    <glyph glyph-name="Ntilde" unicode="&#xd1;" horiz-adv-x="685" 
d="M600 0h-143l-310 535h-2v-435q0 -30 17.5 -45t42.5 -15h20v-40h-215v40h20q25 0 42.5 15t17.5 45v480q0 28 -17.5 44t-42.5 16h-20v40h314l219 -382h2v282q0 29 -17.5 44.5t-42.5 15.5h-20v40h215v-40h-20q-25 0 -42.5 -16t-17.5 -44v-580zM512 853l33 -18
q-26 -56 -50 -77q-31 -28 -72 -28q-38 0 -104 30t-90 30q-30 0 -56 -40l-33 18q26 56 50 77q31 28 72 28q38 0 103 -30t91 -30q30 0 56 40z" />
    <glyph glyph-name="Ograve" unicode="&#xd2;" 
d="M350 -20q-160 0 -250 101.5t-90 258.5t90 258.5t250 101.5t250 -101.5t90 -258.5t-90 -258.5t-250 -101.5zM350 30q31 0 51.5 24.5t34 95.5t13.5 190t-13.5 190t-34 95.5t-51.5 24.5t-51.5 -24.5t-34 -95.5t-13.5 -190t13.5 -190t34 -95.5t51.5 -24.5zM444 749l-19 -24
q-51 11 -77 17.5t-65.5 22t-58 37.5t-18.5 51q0 28 24.5 47.5t61.5 19.5z" />
    <glyph glyph-name="Oacute" unicode="&#xd3;" 
d="M350 -20q-160 0 -250 101.5t-90 258.5t90 258.5t250 101.5t250 -101.5t90 -258.5t-90 -258.5t-250 -101.5zM350 30q31 0 51.5 24.5t34 95.5t13.5 190t-13.5 190t-34 95.5t-51.5 24.5t-51.5 -24.5t-34 -95.5t-13.5 -190t13.5 -190t34 -95.5t51.5 -24.5zM279 725l-19 24
l152 171q37 0 61.5 -19.5t24.5 -47.5q0 -29 -18.5 -51t-58 -37.5t-65.5 -22t-77 -17.5z" />
    <glyph glyph-name="Ocircumflex" unicode="&#xd4;" 
d="M350 -20q-160 0 -250 101.5t-90 258.5t90 258.5t250 101.5t250 -101.5t90 -258.5t-90 -258.5t-250 -101.5zM350 30q31 0 51.5 24.5t34 95.5t13.5 190t-13.5 190t-34 95.5t-51.5 24.5t-51.5 -24.5t-34 -95.5t-13.5 -190t13.5 -190t34 -95.5t51.5 -24.5zM500 723l-150 93
l-150 -93l-26 29l143 154h66l142 -154z" />
    <glyph glyph-name="Otilde" unicode="&#xd5;" 
d="M350 -20q-160 0 -250 101.5t-90 258.5t90 258.5t250 101.5t250 -101.5t90 -258.5t-90 -258.5t-250 -101.5zM350 30q31 0 51.5 24.5t34 95.5t13.5 190t-13.5 190t-34 95.5t-51.5 24.5t-51.5 -24.5t-34 -95.5t-13.5 -190t13.5 -190t34 -95.5t51.5 -24.5zM519 853l33 -18
q-26 -56 -50 -77q-31 -28 -72 -28q-38 0 -104 30t-90 30q-30 0 -56 -40l-33 18q26 56 50 77q31 28 72 28q38 0 103 -30t91 -30q30 0 56 40z" />
    <glyph glyph-name="Odieresis" unicode="&#xd6;" 
d="M350 -20q-160 0 -250 101.5t-90 258.5t90 258.5t250 101.5t250 -101.5t90 -258.5t-90 -258.5t-250 -101.5zM350 30q31 0 51.5 24.5t34 95.5t13.5 190t-13.5 190t-34 95.5t-51.5 24.5t-51.5 -24.5t-34 -95.5t-13.5 -190t13.5 -190t34 -95.5t51.5 -24.5zM240 695
q-35 0 -60 25t-25 60t25 60t60 25t60 -25t25 -60t-25 -60t-60 -25zM460 695q-35 0 -60 25t-25 60t25 60t60 25t60 -25t25 -60t-25 -60t-60 -25z" />
    <glyph glyph-name="multiply" unicode="&#xd7;" horiz-adv-x="350" 
d="M260 231l-85 85l-85 -85l-49 49l85 85l-85 85l49 49l85 -85l85 85l49 -49l-85 -85l85 -85z" />
    <glyph glyph-name="Oslash" unicode="&#xd8;" 
d="M122 -38l-49 35l46 65q-109 100 -109 278q0 157 90 258.5t250 101.5q104 0 182 -47l46 65l49 -35l-46 -66q109 -100 109 -277q0 -157 -90 -258.5t-250 -101.5q-105 0 -183 47zM253 253l185 264q-22 133 -88 133q-31 0 -51.5 -24.5t-34 -95.5t-13.5 -190q0 -61 2 -87z
M447 426l-185 -264q22 -132 88 -132q31 0 51.5 24.5t34 95.5t13.5 190q0 34 -2 86z" />
    <glyph glyph-name="Ugrave" unicode="&#xd9;" horiz-adv-x="695" 
d="M555 202v378q0 29 -17.5 44.5t-42.5 15.5h-20v40h215v-40h-20q-25 0 -42.5 -16t-17.5 -44v-373q0 -108 -73.5 -168t-188.5 -60q-114 0 -188.5 64t-74.5 172v365q0 28 -17.5 44t-42.5 16h-20v40h395v-40h-20q-25 0 -42.5 -15.5t-17.5 -44.5v-378q0 -53 32 -88t85 -35
t85.5 35.5t32.5 87.5zM440 749l-19 -24q-51 11 -77 17.5t-65.5 22t-58 37.5t-18.5 51q0 28 24.5 47.5t61.5 19.5z" />
    <glyph glyph-name="Uacute" unicode="&#xda;" horiz-adv-x="695" 
d="M555 202v378q0 29 -17.5 44.5t-42.5 15.5h-20v40h215v-40h-20q-25 0 -42.5 -16t-17.5 -44v-373q0 -108 -73.5 -168t-188.5 -60q-114 0 -188.5 64t-74.5 172v365q0 28 -17.5 44t-42.5 16h-20v40h395v-40h-20q-25 0 -42.5 -15.5t-17.5 -44.5v-378q0 -53 32 -88t85 -35
t85.5 35.5t32.5 87.5zM296 725l-19 24l152 171q37 0 61.5 -19.5t24.5 -47.5q0 -29 -18.5 -51t-58 -37.5t-65.5 -22t-77 -17.5z" />
    <glyph glyph-name="Ucircumflex" unicode="&#xdb;" horiz-adv-x="695" 
d="M555 202v378q0 29 -17.5 44.5t-42.5 15.5h-20v40h215v-40h-20q-25 0 -42.5 -16t-17.5 -44v-373q0 -108 -73.5 -168t-188.5 -60q-114 0 -188.5 64t-74.5 172v365q0 28 -17.5 44t-42.5 16h-20v40h395v-40h-20q-25 0 -42.5 -15.5t-17.5 -44.5v-378q0 -53 32 -88t85 -35
t85.5 35.5t32.5 87.5zM513 723l-150 93l-150 -93l-26 29l143 154h66l142 -154z" />
    <glyph glyph-name="Udieresis" unicode="&#xdc;" horiz-adv-x="695" 
d="M555 202v378q0 29 -17.5 44.5t-42.5 15.5h-20v40h215v-40h-20q-25 0 -42.5 -16t-17.5 -44v-373q0 -108 -73.5 -168t-188.5 -60q-114 0 -188.5 64t-74.5 172v365q0 28 -17.5 44t-42.5 16h-20v40h395v-40h-20q-25 0 -42.5 -15.5t-17.5 -44.5v-378q0 -53 32 -88t85 -35
t85.5 35.5t32.5 87.5zM253 715q-35 0 -60 25t-25 60t25 60t60 25t60 -25t25 -60t-25 -60t-60 -25zM473 715q-35 0 -60 25t-25 60t25 60t60 25t60 -25t25 -60t-25 -60t-60 -25z" />
    <glyph glyph-name="Yacute" unicode="&#xdd;" 
d="M557 0h-395v40h20q25 0 42.5 15t17.5 45v194l-156 276q-40 70 -86 70h-20v40h419v-40h-20q-52 0 -52 -47q0 -37 26 -83l69 -138l65 138q30 62 30 83q0 47 -50 47h-19v40h272v-40h-20q-25 0 -52 -18t-45 -52l-126 -227v-243q0 -30 17.5 -45t42.5 -15h20v-40zM331 725
l-19 24l152 171q37 0 61.5 -19.5t24.5 -47.5q0 -29 -18.5 -51t-58 -37.5t-65.5 -22t-77 -17.5z" />
    <glyph glyph-name="Thorn" unicode="&#xde;" horiz-adv-x="665" 
d="M405 0h-395v40h20q28 0 44 15.5t16 44.5v480q0 28 -17.5 44t-42.5 16h-20v40h395v-40h-20q-25 0 -42.5 -16t-17.5 -44v-40h90q128 0 186.5 -53t58.5 -133q0 -106 -84.5 -163t-225.5 -57h-25v-34q0 -60 60 -60h20v-40zM350 490h-25v-266q0 -41 36 -41q10 0 20.5 6.5
t22 21.5t19 47t7.5 76q0 85 -24 120.5t-56 35.5z" />
    <glyph glyph-name="germandbls" unicode="&#xdf;" horiz-adv-x="775" 
d="M315 0h-300v40h20q50 0 50 50v380h-70v40q27 11 42 24.5t28 45.5q33 82 98.5 126t180.5 44q251 0 251 -149q0 -34 -21 -64t-45.5 -47.5t-45.5 -36t-21 -32.5q0 -24 16.5 -36t77.5 -33q98 -35 143.5 -77t45.5 -104q0 -89 -70.5 -140t-173.5 -51q-121 0 -191 40v135h44
q28 -41 44.5 -61.5t46.5 -38.5t65 -18q31 0 51 15t20 41q0 19 -16.5 31.5t-68.5 33.5q-99 40 -140 83.5t-41 102.5q0 48 33 129.5t33 134.5q0 79 -52 79q-8 0 -14 -2t-9.5 -7.5t-6 -9t-3.5 -12t-1 -11.5v-13v-9v-623z" />
    <glyph glyph-name="agrave" unicode="&#xe0;" horiz-adv-x="630" 
d="M587 96v59h43v-56q0 -46 -38.5 -82.5t-106.5 -36.5q-109 0 -127 102q-36 -50 -82 -76t-118 -26q-70 0 -109 32t-39 92q0 70 70 124t235 101v81q0 63 -57 63q-23 0 -39.5 -16.5t-16.5 -46.5q0 -12 6 -54q0 -23 -23.5 -45.5t-57.5 -22.5q-39 0 -59.5 23.5t-20.5 58.5
q0 63 62.5 111.5t187.5 48.5q130 0 189 -54.5t59 -133.5v-246q0 -28 21 -28t21 28zM315 118v170q-36 -21 -53 -64t-17 -86q0 -62 34 -62q16 0 26 12t10 30zM399 579l-19 -24q-51 11 -77 17.5t-65.5 22t-58 37.5t-18.5 51q0 28 24.5 47.5t61.5 19.5z" />
    <glyph glyph-name="aacute" unicode="&#xe1;" horiz-adv-x="630" 
d="M587 96v59h43v-56q0 -46 -38.5 -82.5t-106.5 -36.5q-109 0 -127 102q-36 -50 -82 -76t-118 -26q-70 0 -109 32t-39 92q0 70 70 124t235 101v81q0 63 -57 63q-23 0 -39.5 -16.5t-16.5 -46.5q0 -12 6 -54q0 -23 -23.5 -45.5t-57.5 -22.5q-39 0 -59.5 23.5t-20.5 58.5
q0 63 62.5 111.5t187.5 48.5q130 0 189 -54.5t59 -133.5v-246q0 -28 21 -28t21 28zM315 118v170q-36 -21 -53 -64t-17 -86q0 -62 34 -62q16 0 26 12t10 30zM248 555l-19 24l152 171q37 0 61.5 -19.5t24.5 -47.5q0 -29 -18.5 -51t-58 -37.5t-65.5 -22t-77 -17.5z" />
    <glyph glyph-name="acircumflex" unicode="&#xe2;" horiz-adv-x="630" 
d="M587 96v59h43v-56q0 -46 -38.5 -82.5t-106.5 -36.5q-109 0 -127 102q-36 -50 -82 -76t-118 -26q-70 0 -109 32t-39 92q0 70 70 124t235 101v81q0 63 -57 63q-23 0 -39.5 -16.5t-16.5 -46.5q0 -12 6 -54q0 -23 -23.5 -45.5t-57.5 -22.5q-39 0 -59.5 23.5t-20.5 58.5
q0 63 62.5 111.5t187.5 48.5q130 0 189 -54.5t59 -133.5v-246q0 -28 21 -28t21 28zM315 118v170q-36 -21 -53 -64t-17 -86q0 -62 34 -62q16 0 26 12t10 30zM450 553l-150 93l-150 -93l-26 29l143 154h66l142 -154z" />
    <glyph glyph-name="atilde" unicode="&#xe3;" horiz-adv-x="630" 
d="M587 96v59h43v-56q0 -46 -38.5 -82.5t-106.5 -36.5q-109 0 -127 102q-36 -50 -82 -76t-118 -26q-70 0 -109 32t-39 92q0 70 70 124t235 101v81q0 63 -57 63q-23 0 -39.5 -16.5t-16.5 -46.5q0 -12 6 -54q0 -23 -23.5 -45.5t-57.5 -22.5q-39 0 -59.5 23.5t-20.5 58.5
q0 63 62.5 111.5t187.5 48.5q130 0 189 -54.5t59 -133.5v-246q0 -28 21 -28t21 28zM315 118v170q-36 -21 -53 -64t-17 -86q0 -62 34 -62q16 0 26 12t10 30zM484 683l33 -18q-26 -56 -50 -77q-31 -28 -72 -28q-38 0 -104 30t-90 30q-30 0 -56 -40l-33 18q26 56 50 77
q31 28 72 28q38 0 103 -30t91 -30q30 0 56 40z" />
    <glyph glyph-name="adieresis" unicode="&#xe4;" horiz-adv-x="630" 
d="M587 96v59h43v-56q0 -46 -38.5 -82.5t-106.5 -36.5q-109 0 -127 102q-36 -50 -82 -76t-118 -26q-70 0 -109 32t-39 92q0 70 70 124t235 101v81q0 63 -57 63q-23 0 -39.5 -16.5t-16.5 -46.5q0 -12 6 -54q0 -23 -23.5 -45.5t-57.5 -22.5q-39 0 -59.5 23.5t-20.5 58.5
q0 63 62.5 111.5t187.5 48.5q130 0 189 -54.5t59 -133.5v-246q0 -28 21 -28t21 28zM315 118v170q-36 -21 -53 -64t-17 -86q0 -62 34 -62q16 0 26 12t10 30zM195 545q-35 0 -60 25t-25 60t25 60t60 25t60 -25t25 -60t-25 -60t-60 -25zM415 545q-35 0 -60 25t-25 60t25 60
t60 25t60 -25t25 -60t-25 -60t-60 -25z" />
    <glyph glyph-name="aring" unicode="&#xe5;" horiz-adv-x="630" 
d="M587 96v59h43v-56q0 -46 -38.5 -82.5t-106.5 -36.5q-109 0 -127 102q-36 -50 -82 -76t-118 -26q-70 0 -109 32t-39 92q0 70 70 124t235 101v81q0 63 -57 63q-23 0 -39.5 -16.5t-16.5 -46.5q0 -12 6 -54q0 -23 -23.5 -45.5t-57.5 -22.5q-39 0 -59.5 23.5t-20.5 58.5
q0 63 62.5 111.5t187.5 48.5q130 0 189 -54.5t59 -133.5v-246q0 -28 21 -28t21 28zM315 118v170q-36 -21 -53 -64t-17 -86q0 -62 34 -62q16 0 26 12t10 30zM421 675q0 -46 -32.5 -78t-79.5 -32t-80 32t-33 78t33 77.5t80 31.5t79.5 -31.5t32.5 -77.5zM366 675q0 25 -16 41
t-41 16t-41 -16t-16 -41t16 -41t41 -16t41 16t16 41z" />
    <glyph glyph-name="ae" unicode="&#xe6;" horiz-adv-x="835" 
d="M830 102v-49q-43 -36 -90 -54.5t-125 -18.5q-146 0 -228 92q-84 -92 -203 -92q-174 0 -174 122q0 71 69 119t236 83v106q0 63 -57 63q-23 0 -39.5 -16.5t-16.5 -46.5q0 -12 6 -54q0 -23 -23.5 -45.5t-57.5 -22.5q-39 0 -59.5 23.5t-20.5 58.5q0 63 62.5 111.5t187.5 48.5
q101 0 159 -38q65 38 148 38q116 0 171 -68.5t55 -179.5h-286q11 -108 59.5 -162t113.5 -54q69 0 113 36zM541 322h63q45 0 45 50q0 85 -50 85q-27 0 -42.5 -28t-15.5 -80v-27zM315 108v160q-33 -13 -51.5 -55.5t-18.5 -84.5q0 -62 34 -62q16 0 26 12t10 30z" />
    <glyph glyph-name="ccedilla" unicode="&#xe7;" horiz-adv-x="511" 
d="M505 102v-49q-88 -73 -221 -73q-40 0 -76 9l-16 -42q35 15 70 15q48 0 79.5 -25.5t31.5 -73.5q0 -43 -37 -73t-91 -30q-51 0 -77 17t-26 45q0 18 10 30.5t32 12.5q16 0 26.5 -10t10.5 -26q0 -40 31 -40q14 0 26 12.5t12 33.5q0 71 -71 71q-31 0 -49 -15l-33 13l37 96
q-76 28 -120 93.5t-44 147.5q0 131 81 210t222 79q101 0 147 -45t46 -98q0 -36 -21 -62t-65 -26q-33 0 -54.5 20.5t-21.5 52.5q0 85 -58 85q-65 0 -65 -108q0 -139 54 -211t131 -72q55 0 99 36z" />
    <glyph glyph-name="egrave" unicode="&#xe8;" horiz-adv-x="520" 
d="M515 102v-49q-43 -36 -90 -54.5t-125 -18.5q-132 0 -211 75t-79 186q0 129 77 209t202 80q116 0 171 -68.5t55 -179.5h-286q11 -108 59.5 -162t113.5 -54q69 0 113 36zM226 322h63q45 0 45 50q0 85 -50 85q-27 0 -42.5 -28t-15.5 -80v-27zM363 579l-19 -24
q-51 11 -77 17.5t-65.5 22t-58 37.5t-18.5 51q0 28 24.5 47.5t61.5 19.5z" />
    <glyph glyph-name="eacute" unicode="&#xe9;" horiz-adv-x="520" 
d="M515 102v-49q-43 -36 -90 -54.5t-125 -18.5q-132 0 -211 75t-79 186q0 129 77 209t202 80q116 0 171 -68.5t55 -179.5h-286q11 -108 59.5 -162t113.5 -54q69 0 113 36zM226 322h63q45 0 45 50q0 85 -50 85q-27 0 -42.5 -28t-15.5 -80v-27zM230 555l-19 24l152 171
q37 0 61.5 -19.5t24.5 -47.5q0 -29 -18.5 -51t-58 -37.5t-65.5 -22t-77 -17.5z" />
    <glyph glyph-name="ecircumflex" unicode="&#xea;" horiz-adv-x="520" 
d="M515 102v-49q-43 -36 -90 -54.5t-125 -18.5q-132 0 -211 75t-79 186q0 129 77 209t202 80q116 0 171 -68.5t55 -179.5h-286q11 -108 59.5 -162t113.5 -54q69 0 113 36zM226 322h63q45 0 45 50q0 85 -50 85q-27 0 -42.5 -28t-15.5 -80v-27zM429 553l-150 93l-150 -93
l-26 29l143 154h66l142 -154z" />
    <glyph glyph-name="edieresis" unicode="&#xeb;" horiz-adv-x="520" 
d="M515 102v-49q-43 -36 -90 -54.5t-125 -18.5q-132 0 -211 75t-79 186q0 129 77 209t202 80q116 0 171 -68.5t55 -179.5h-286q11 -108 59.5 -162t113.5 -54q69 0 113 36zM226 322h63q45 0 45 50q0 85 -50 85q-27 0 -42.5 -28t-15.5 -80v-27zM169 545q-35 0 -60 25t-25 60
t25 60t60 25t60 -25t25 -60t-25 -60t-60 -25zM389 545q-35 0 -60 25t-25 60t25 60t60 25t60 -25t25 -60t-25 -60t-60 -25z" />
    <glyph glyph-name="igrave" unicode="&#xec;" horiz-adv-x="430" 
d="M400 0h-370v40h20q50 0 50 50v250l-70 70q65 20 156.5 56t143.5 64v-440q0 -50 50 -50h20v-40zM305 579l-19 -24q-51 11 -77 17.5t-65.5 22t-58 37.5t-18.5 51q0 28 24.5 47.5t61.5 19.5z" />
    <glyph glyph-name="iacute" unicode="&#xed;" horiz-adv-x="430" 
d="M400 0h-370v40h20q50 0 50 50v250l-70 70q65 20 156.5 56t143.5 64v-440q0 -50 50 -50h20v-40zM179 555l-19 24l152 171q37 0 61.5 -19.5t24.5 -47.5q0 -29 -18.5 -51t-58 -37.5t-65.5 -22t-77 -17.5z" />
    <glyph glyph-name="icircumflex" unicode="&#xee;" horiz-adv-x="430" 
d="M400 0h-370v40h20q50 0 50 50v250l-70 70q65 20 156.5 56t143.5 64v-440q0 -50 50 -50h20v-40zM365 553l-150 93l-150 -93l-26 29l143 154h66l142 -154z" />
    <glyph glyph-name="idieresis" unicode="&#xef;" horiz-adv-x="430" 
d="M400 0h-370v40h20q50 0 50 50v250l-70 70q65 20 156.5 56t143.5 64v-440q0 -50 50 -50h20v-40zM105 545q-35 0 -60 25t-25 60t25 60t60 25t60 -25t25 -60t-25 -60t-60 -25zM325 545q-35 0 -60 25t-25 60t25 60t60 25t60 -25t25 -60t-25 -60t-60 -25z" />
    <glyph glyph-name="eth" unicode="&#xf0;" horiz-adv-x="619" 
d="M445 711l-67 -47q109 -69 170 -173.5t61 -235.5q0 -120 -82 -197.5t-217 -77.5t-217.5 77.5t-82.5 197.5q0 121 84.5 198t228.5 77q-15 33 -41 65l-90 -63l-29 41l85 60q-71 71 -133 92l12 35q113 -22 203 -69l86 61zM310 37q32 0 48 47t16 171t-16 171t-48 47t-48 -47
t-16 -171q0 -123 16 -170.5t48 -47.5z" />
    <glyph glyph-name="ntilde" unicode="&#xf1;" horiz-adv-x="730" 
d="M720 0h-300v356q0 64 -50 64q-25 0 -42.5 -18t-17.5 -46v-266q0 -50 50 -50h20v-40h-370v40h20q50 0 50 50v260l-70 70q61 19 148.5 55t141.5 65v-102q72 92 187 92q81 0 122 -45t41 -115v-280q0 -50 50 -50h20v-40zM525 683l33 -18q-26 -56 -50 -77q-31 -28 -72 -28
q-38 0 -104 30t-90 30q-30 0 -56 -40l-33 18q26 56 50 77q31 28 72 28q38 0 103 -30t91 -30q30 0 56 40z" />
    <glyph glyph-name="ograve" unicode="&#xf2;" horiz-adv-x="610" 
d="M609 255q0 -120 -82 -197.5t-217 -77.5t-217.5 77.5t-82.5 197.5t82.5 197.5t217.5 77.5t217 -77.5t82 -197.5zM310 37q32 0 48 47t16 171t-16 171t-48 47t-48 -47t-16 -171q0 -123 16 -170.5t48 -47.5zM396 579l-19 -24q-51 11 -77 17.5t-65.5 22t-58 37.5t-18.5 51
q0 28 24.5 47.5t61.5 19.5z" />
    <glyph glyph-name="oacute" unicode="&#xf3;" horiz-adv-x="610" 
d="M609 255q0 -120 -82 -197.5t-217 -77.5t-217.5 77.5t-82.5 197.5t82.5 197.5t217.5 77.5t217 -77.5t82 -197.5zM310 37q32 0 48 47t16 171t-16 171t-48 47t-48 -47t-16 -171q0 -123 16 -170.5t48 -47.5zM237 555l-19 24l152 171q37 0 61.5 -19.5t24.5 -47.5
q0 -29 -18.5 -51t-58 -37.5t-65.5 -22t-77 -17.5z" />
    <glyph glyph-name="ocircumflex" unicode="&#xf4;" horiz-adv-x="610" 
d="M609 255q0 -120 -82 -197.5t-217 -77.5t-217.5 77.5t-82.5 197.5t82.5 197.5t217.5 77.5t217 -77.5t82 -197.5zM310 37q32 0 48 47t16 171t-16 171t-48 47t-48 -47t-16 -171q0 -123 16 -170.5t48 -47.5zM455 553l-150 93l-150 -93l-26 29l143 154h66l142 -154z" />
    <glyph glyph-name="otilde" unicode="&#xf5;" horiz-adv-x="610" 
d="M609 255q0 -120 -82 -197.5t-217 -77.5t-217.5 77.5t-82.5 197.5t82.5 197.5t217.5 77.5t217 -77.5t82 -197.5zM310 37q32 0 48 47t16 171t-16 171t-48 47t-48 -47t-16 -171q0 -123 16 -170.5t48 -47.5zM474 683l33 -18q-26 -56 -50 -77q-31 -28 -72 -28q-38 0 -104 30
t-90 30q-30 0 -56 -40l-33 18q26 56 50 77q31 28 72 28q38 0 103 -30t91 -30q30 0 56 40z" />
    <glyph glyph-name="odieresis" unicode="&#xf6;" horiz-adv-x="619" 
d="M609 255q0 -120 -82 -197.5t-217 -77.5t-217.5 77.5t-82.5 197.5t82.5 197.5t217.5 77.5t217 -77.5t82 -197.5zM310 37q32 0 48 47t16 171t-16 171t-48 47t-48 -47t-16 -171q0 -123 16 -170.5t48 -47.5zM195 545q-35 0 -60 25t-25 60t25 60t60 25t60 -25t25 -60t-25 -60
t-60 -25zM415 545q-35 0 -60 25t-25 60t25 60t60 25t60 -25t25 -60t-25 -60t-60 -25z" />
    <glyph glyph-name="divide" unicode="&#xf7;" horiz-adv-x="350" 
d="M330 330h-310v70h310v-70zM175 450q-35 0 -60 25t-25 60t25 60t60 25t60 -25t25 -60t-25 -60t-60 -25zM175 110q-35 0 -60 25t-25 60t25 60t60 25t60 -25t25 -60t-25 -60t-60 -25z" />
    <glyph glyph-name="oslash" unicode="&#xf8;" horiz-adv-x="619" 
d="M125 -54l-49 34l40 58q-106 78 -106 217q0 120 82.5 197.5t217.5 77.5q73 0 134 -25l51 73l49 -34l-47 -68q54 -37 83 -94.5t29 -126.5q0 -120 -82 -197.5t-217 -77.5q-78 0 -142 28zM373 300l-120 -172q14 -96 57 -96q32 0 48 49.5t16 173.5q0 31 -1 45zM246 223
l119 170q-14 85 -55 85q-32 0 -48 -49.5t-16 -173.5v-32z" />
    <glyph glyph-name="ugrave" unicode="&#xf9;" horiz-adv-x="725" 
d="M715 0h-290v70q-70 -90 -182 -90q-81 0 -122 45t-41 115v210l-70 70q65 20 156.5 56t143.5 64v-387q0 -63 49 -63q25 0 40.5 16.5t15.5 44.5v199l-70 70q65 20 156.5 56t143.5 64v-450q0 -50 50 -50h20v-40zM453 579l-19 -24q-51 11 -77 17.5t-65.5 22t-58 37.5t-18.5 51
q0 28 24.5 47.5t61.5 19.5z" />
    <glyph glyph-name="uacute" unicode="&#xfa;" horiz-adv-x="725" 
d="M715 0h-290v70q-70 -90 -182 -90q-81 0 -122 45t-41 115v210l-70 70q65 20 156.5 56t143.5 64v-387q0 -63 49 -63q25 0 40.5 16.5t15.5 44.5v199l-70 70q65 20 156.5 56t143.5 64v-450q0 -50 50 -50h20v-40zM372 555l-19 24l152 171q37 0 61.5 -19.5t24.5 -47.5
q0 -29 -18.5 -51t-58 -37.5t-65.5 -22t-77 -17.5z" />
    <glyph glyph-name="ucircumflex" unicode="&#xfb;" horiz-adv-x="725" 
d="M715 0h-290v70q-70 -90 -182 -90q-81 0 -122 45t-41 115v210l-70 70q65 20 156.5 56t143.5 64v-387q0 -63 49 -63q25 0 40.5 16.5t15.5 44.5v199l-70 70q65 20 156.5 56t143.5 64v-450q0 -50 50 -50h20v-40zM507 553l-150 93l-150 -93l-26 29l143 154h66l142 -154z" />
    <glyph glyph-name="udieresis" unicode="&#xfc;" horiz-adv-x="725" 
d="M715 0h-290v70q-70 -90 -182 -90q-81 0 -122 45t-41 115v210l-70 70q65 20 156.5 56t143.5 64v-387q0 -63 49 -63q25 0 40.5 16.5t15.5 44.5v199l-70 70q65 20 156.5 56t143.5 64v-450q0 -50 50 -50h20v-40zM259 545q-35 0 -60 25t-25 60t25 60t60 25t60 -25t25 -60
t-25 -60t-60 -25zM479 545q-35 0 -60 25t-25 60t25 60t60 25t60 -25t25 -60t-25 -60t-60 -25z" />
    <glyph glyph-name="yacute" unicode="&#xfd;" horiz-adv-x="645" 
d="M665 470h-20q-64 0 -99 -70l-252 -501q-70 -139 -205 -139q-53 0 -86 28t-33 73q0 38 21.5 60.5t60.5 22.5q26 0 64.5 -25.5t72.5 -25.5q37 0 58 29t21 73q0 92 -56 192l-118 213q-19 33 -44.5 51.5t-49.5 18.5h-20v40h406v-40h-20q-41 0 -41 -36q0 -33 28 -85l56 -109
l44 90q36 74 36 101q0 39 -53 39h-13v40h242v-40zM332 555l-19 24l152 171q37 0 61.5 -19.5t24.5 -47.5q0 -29 -18.5 -51t-58 -37.5t-65.5 -22t-77 -17.5z" />
    <glyph glyph-name="thorn" unicode="&#xfe;" horiz-adv-x="664" 
d="M360 -220h-370v40h20q50 0 50 50v700l-70 70q65 20 156.5 56t143.5 64v-294q22 27 59 45.5t73 18.5q109 0 170.5 -74t61.5 -186q0 -130 -82 -210t-218 -80q-34 0 -64 5v-115q0 -50 50 -50h20v-40zM353 47q32 0 48.5 42.5t16.5 155.5t-16.5 155.5t-48.5 42.5
q-21 0 -34 -14t-21 -58.5t-8 -125.5q0 -115 15.5 -156.5t47.5 -41.5z" />
    <glyph glyph-name="ydieresis" unicode="&#xff;" horiz-adv-x="645" 
d="M665 470h-20q-64 0 -99 -70l-252 -501q-70 -139 -205 -139q-53 0 -86 28t-33 73q0 38 21.5 60.5t60.5 22.5q26 0 64.5 -25.5t72.5 -25.5q37 0 58 29t21 73q0 92 -56 192l-118 213q-19 33 -44.5 51.5t-49.5 18.5h-20v40h406v-40h-20q-41 0 -41 -36q0 -33 28 -85l56 -109
l44 90q36 74 36 101q0 39 -53 39h-13v40h242v-40zM212 545q-35 0 -60 25t-25 60t25 60t60 25t60 -25t25 -60t-25 -60t-60 -25zM432 545q-35 0 -60 25t-25 60t25 60t60 25t60 -25t25 -60t-25 -60t-60 -25z" />
    <glyph glyph-name="dotlessi" unicode="&#x131;" horiz-adv-x="430" 
d="M400 0h-370v40h20q50 0 50 50v250l-70 70q65 20 156.5 56t143.5 64v-440q0 -50 50 -50h20v-40z" />
    <glyph glyph-name="Lslash" unicode="&#x141;" horiz-adv-x="645" 
d="M580 0h-570v40h20q25 0 42.5 15t17.5 45v139q-22 -11 -42.5 -33.5t-26.5 -44.5l-49 11q1 19 6.5 39.5t17 48t36 51t58.5 35.5v234q0 28 -17.5 44t-42.5 16h-20v40h395v-40h-20q-25 0 -42.5 -15.5t-17.5 -44.5v-192q21 12 41 34.5t26 43.5l49 -11q-1 -19 -6.5 -39.5
t-17 -48.5t-35.5 -51t-57 -35v-176q0 -55 57 -55q61 0 113 51t101 144h44z" />
    <glyph glyph-name="lslash" unicode="&#x142;" horiz-adv-x="400" 
d="M385 0h-370v40h20q50 0 50 50v147q-21 -13 -40 -34.5t-24 -41.5l-49 11q2 27 9.5 55t34.5 65t69 53v225l-70 70q65 20 156.5 56t143.5 64v-372q21 12 41 34.5t26 43.5l49 -11q-1 -19 -6.5 -39.5t-17 -48.5t-35.5 -51t-57 -35v-191q0 -50 50 -50h20v-40z" />
    <glyph glyph-name="OE" unicode="&#x152;" horiz-adv-x="1000" 
d="M935 0h-580q-161 0 -248 92.5t-87 247.5t87 247.5t248 92.5h560l50 -215h-44q-46 87 -93 126t-111 39h-47v-261h73q29 0 44.5 17.5t15.5 42.5v20h45v-209h-45v20q0 25 -15.5 42.5t-44.5 17.5h-73v-210q0 -60 52 -60q125 0 229 195h44zM435 50v518q0 28 -15 47.5t-42 19.5
q-23 0 -43.5 -14.5t-38.5 -46.5t-29 -92t-11 -142q0 -290 136 -290h43z" />
    <glyph glyph-name="oe" unicode="&#x153;" horiz-adv-x="899" 
d="M894 102v-49q-43 -36 -90 -54.5t-125 -18.5q-109 0 -185 55q-74 -55 -184 -55q-135 0 -217.5 77.5t-82.5 197.5t82.5 197.5t217.5 77.5q110 0 185 -56q70 56 173 56q116 0 171 -68.5t55 -179.5h-286q11 -108 59.5 -162t113.5 -54q69 0 113 36zM310 37q32 0 48 47t16 171
t-16 171t-48 47t-48 -47t-16 -171q0 -123 16 -170.5t48 -47.5zM605 322h63q45 0 45 50q0 85 -50 85q-27 0 -42.5 -28t-15.5 -80v-27z" />
    <glyph glyph-name="Scaron" unicode="&#x160;" horiz-adv-x="540" 
d="M490 480h-44q-68 160 -166 160q-35 0 -60.5 -22.5t-25.5 -55.5q0 -41 23.5 -64t90.5 -46q106 -37 164 -92.5t58 -146.5q0 -108 -89.5 -170.5t-204.5 -62.5q-72 0 -132.5 15.5t-93.5 34.5v170h44q81 -160 194 -160q43 0 67 23t24 58q0 36 -25.5 61.5t-79.5 47.5
q-110 45 -164.5 100.5t-54.5 143.5q0 98 77.5 162t203.5 64q112 0 194 -50v-170zM315 733h-66l-143 154l26 29l150 -93l150 93l25 -29z" />
    <glyph glyph-name="scaron" unicode="&#x161;" horiz-adv-x="460" 
d="M411 355h-44q-48 118 -139 118q-28 0 -44.5 -15t-16.5 -37q0 -23 16 -34t78 -33q98 -35 143.5 -78t45.5 -105q0 -88 -72.5 -139.5t-176.5 -51.5q-121 0 -191 40v135h44q28 -41 44.5 -61.5t46.5 -38.5t65 -18q31 0 51 15t20 41q0 18 -16 29.5t-69 33.5q-99 40 -140 84.5
t-41 103.5q0 85 67 135.5t169 50.5q39 0 84.5 -11t75.5 -29v-135zM263 563h-66l-143 154l26 29l150 -93l150 93l25 -29z" />
    <glyph glyph-name="Ydieresis" unicode="&#x178;" 
d="M557 0h-395v40h20q25 0 42.5 15t17.5 45v194l-156 276q-40 70 -86 70h-20v40h419v-40h-20q-52 0 -52 -47q0 -37 26 -83l69 -138l65 138q30 62 30 83q0 47 -50 47h-19v40h272v-40h-20q-25 0 -52 -18t-45 -52l-126 -227v-243q0 -30 17.5 -45t42.5 -15h20v-40zM240 715
q-35 0 -60 25t-25 60t25 60t60 25t60 -25t25 -60t-25 -60t-60 -25zM460 715q-35 0 -60 25t-25 60t25 60t60 25t60 -25t25 -60t-25 -60t-60 -25z" />
    <glyph glyph-name="Zcaron" unicode="&#x17d;" horiz-adv-x="640" 
d="M630 0h-630l362 630h-81q-83 0 -142.5 -36.5t-75.5 -108.5h-44l46 195h575l-359 -630h117q161 0 193 145h39v-195zM368 733h-66l-143 154l26 29l150 -93l150 93l25 -29z" />
    <glyph glyph-name="zcaron" unicode="&#x17e;" horiz-adv-x="540" 
d="M535 0h-535l270 470h-13q-81 0 -134 -36t-69 -109h-44l40 185h490l-268 -470h31q161 0 193 145h39v-185zM303 563h-66l-143 154l26 29l150 -93l150 93l25 -29z" />
    <glyph glyph-name="florin" unicode="&#x192;" horiz-adv-x="661" 
d="M586 273h-138l-41 -329q-10 -83 -79 -133.5t-159 -50.5q-99 0 -148 34.5t-49 90.5q0 37 25 64.5t66 27.5q35 0 54.5 -17t19.5 -45q-5 -17 -5 -39q0 -53 54 -53q29 0 43 14.5t14 35.5q0 34 -29 82t-25 83l29 235h-122v40h127l31 253q10 83 79 133.5t159 50.5
q99 0 148 -34.5t49 -90.5q0 -37 -25 -64.5t-66 -27.5q-35 0 -54.5 17t-19.5 45q5 17 5 39q0 53 -54 53q-29 0 -43 -14.5t-14 -35.5q0 -34 29 -82t25 -83l-19 -159h133v-40z" />
    <glyph glyph-name="circumflex" unicode="&#x2c6;" horiz-adv-x="370" 
d="M335 553l-150 93l-150 -93l-26 29l143 154h66l142 -154z" />
    <glyph glyph-name="caron" unicode="&#x2c7;" horiz-adv-x="370" 
d="M218 563h-66l-143 154l26 29l150 -93l150 93l25 -29z" />
    <glyph glyph-name="breve" unicode="&#x2d8;" horiz-adv-x="327" 
d="M240 694h72q0 -56 -45 -95t-103 -39t-103.5 39t-45.5 95h73q0 -40 19.5 -63t56.5 -23t56.5 23t19.5 63z" />
    <glyph glyph-name="dotaccent" unicode="&#x2d9;" horiz-adv-x="430" 
d="M215 520q-48 0 -81.5 33.5t-33.5 81.5t33.5 81.5t81.5 33.5t81.5 -33.5t33.5 -81.5t-33.5 -81.5t-81.5 -33.5z" />
    <glyph glyph-name="ring" unicode="&#x2da;" horiz-adv-x="371" 
d="M298 675q0 -46 -32.5 -78t-79.5 -32t-80 32t-33 78t33 77.5t80 31.5t79.5 -31.5t32.5 -77.5zM243 675q0 25 -16 41t-41 16t-41 -16t-16 -41t16 -41t41 -16t41 16t16 41z" />
    <glyph glyph-name="ogonek" unicode="&#x2db;" horiz-adv-x="453" 
d="M307 -20h-27q-34 0 -52.5 -23t-18.5 -58q0 -21 12 -33.5t26 -12.5q31 0 31 40q0 16 10.5 26t26.5 10q22 0 32 -12.5t10 -30.5q0 -28 -26 -45t-77 -17q-56 0 -92 25.5t-36 67.5q0 104 181 104v-41z" />
    <glyph glyph-name="tilde" unicode="&#x2dc;" horiz-adv-x="495" 
d="M417 683l33 -18q-26 -56 -50 -77q-31 -28 -72 -28q-38 0 -104 30t-90 30q-30 0 -56 -40l-33 18q26 56 50 77q31 28 72 28q38 0 103 -30t91 -30q30 0 56 40z" />
    <glyph glyph-name="hungarumlaut" unicode="&#x2dd;" horiz-adv-x="510" 
d="M161 576l-25 16l91 210q18 6 34 6q30 0 44.5 -16.5t14.5 -41.5q0 -41 -47.5 -89t-111.5 -85zM314 576l-25 16l91 210q18 6 34 6q30 0 44.5 -16.5t14.5 -41.5q0 -41 -47.5 -89t-111.5 -85z" />
    <glyph glyph-name="Delta" unicode="&#x394;" horiz-adv-x="569" 
d="M256 383h2q12 27 42 45.5t73 18.5q69 0 123 -55t54 -138q0 -127 -78 -215.5t-176 -88.5q-54 0 -83 23t-29 54q0 19 12 31.5t30 12.5q12 0 23 -8t13 -19q10 -41 41 -41q19 0 32 13.5t13 31.5q0 65 -126 79q-58 6 -93.5 36.5t-35.5 78.5q0 65 40.5 94t99.5 29v2
q-108 58 -169.5 141.5t-61.5 154.5q0 20 11 33.5t28 13.5q20 0 31 -12t11 -29q0 -121 67 -204h2q-8 32 -8 51q0 57 38.5 94t88.5 37q45 0 66 -22.5t21 -47.5q0 -21 -15.5 -36.5t-36.5 -17.5q-15 35 -55 35q-33 0 -50.5 -18.5t-17.5 -48.5q0 -59 73 -108z" />
    <glyph glyph-name="Delta" unicode="&#x2206;" horiz-adv-x="569" 
d="M256 383h2q12 27 42 45.5t73 18.5q69 0 123 -55t54 -138q0 -127 -78 -215.5t-176 -88.5q-54 0 -83 23t-29 54q0 19 12 31.5t30 12.5q12 0 23 -8t13 -19q10 -41 41 -41q19 0 32 13.5t13 31.5q0 65 -126 79q-58 6 -93.5 36.5t-35.5 78.5q0 65 40.5 94t99.5 29v2
q-108 58 -169.5 141.5t-61.5 154.5q0 20 11 33.5t28 13.5q20 0 31 -12t11 -29q0 -121 67 -204h2q-8 32 -8 51q0 57 38.5 94t88.5 37q45 0 66 -22.5t21 -47.5q0 -21 -15.5 -36.5t-36.5 -17.5q-15 35 -55 35q-33 0 -50.5 -18.5t-17.5 -48.5q0 -59 73 -108z" />
    <glyph glyph-name="pi" unicode="&#x3c0;" horiz-adv-x="1159" 
d="M120 160v420q0 28 -17.5 44t-42.5 16h-20v40h284l219 -382h2v322q0 86 36 128t95 42q35 0 57.5 -22.5t22.5 -55.5q-71 -16 -113.5 -77t-42.5 -158v-477h-113l-310 535h-2v-404q0 -70 -27.5 -110.5t-80.5 -40.5q-35 0 -58.5 20.5t-23.5 56.5q0 32 22 49.5t46 17.5
q14 -6 28 -6q17 0 28 11.5t11 30.5zM1134 466q0 -103 -64 -168.5t-173 -65.5t-173.5 65.5t-64.5 168.5t64.5 168.5t173.5 65.5t173 -65.5t64 -168.5zM897 281q27 0 40.5 40t13.5 145t-13.5 145t-40.5 40t-40.5 -40t-13.5 -145t13.5 -145t40.5 -40zM1076 0h-368v50h368v-50z
M1076 95h-368v50h368v-50z" />
    <glyph glyph-name="endash" unicode="&#x2013;" horiz-adv-x="400" 
d="M395 270h-395v70h395v-70z" />
    <glyph glyph-name="emdash" unicode="&#x2014;" horiz-adv-x="590" 
d="M585 270h-585v70h585v-70z" />
    <glyph glyph-name="quoteleft" unicode="&#x2018;" horiz-adv-x="254" 
d="M24 330l-14 49q45 13 82.5 48t43.5 72q-52 0 -84 28t-32 72q0 43 28 72t72 29q55 0 89.5 -36.5t34.5 -101.5q0 -83 -66.5 -149.5t-153.5 -82.5z" />
    <glyph glyph-name="quoteright" unicode="&#x2019;" horiz-adv-x="254" 
d="M24 330l-14 49q45 13 82.5 48t43.5 72q-52 0 -84 28t-32 72q0 43 28 72t72 29q55 0 89.5 -36.5t34.5 -101.5q0 -83 -66.5 -149.5t-153.5 -82.5z" />
    <glyph glyph-name="quotesinglbase" unicode="&#x201a;" horiz-adv-x="254" 
d="M24 -20l-14 49q45 13 82.5 48t43.5 72q-52 0 -84 28t-32 72q0 43 28 72t72 29q55 0 89.5 -36.5t34.5 -101.5q0 -83 -66.5 -149.5t-153.5 -82.5z" />
    <glyph glyph-name="quotedblleft" unicode="&#x201c;" horiz-adv-x="488" 
d="M244 379l-14 -49q-87 16 -153.5 82.5t-66.5 149.5q0 65 34.5 101.5t89.5 36.5q44 0 72 -29t28 -72q0 -44 -32 -72t-84 -28q6 -37 43.5 -72t82.5 -48zM478 379l-14 -49q-87 16 -153.5 82.5t-66.5 149.5q0 65 34.5 101.5t89.5 36.5q44 0 72 -29t28 -72q0 -44 -32 -72
t-84 -28q6 -37 43.5 -72t82.5 -48z" />
    <glyph glyph-name="quotedblright" unicode="&#x201d;" horiz-adv-x="488" 
d="M24 330l-14 49q45 13 82.5 48t43.5 72q-52 0 -84 28t-32 72q0 43 28 72t72 29q55 0 89.5 -36.5t34.5 -101.5q0 -83 -66.5 -149.5t-153.5 -82.5zM258 330l-14 49q45 13 82.5 48t43.5 72q-52 0 -84 28t-32 72q0 43 28 72t72 29q55 0 89.5 -36.5t34.5 -101.5
q0 -83 -66.5 -149.5t-153.5 -82.5z" />
    <glyph glyph-name="quotedblbase" unicode="&#x201e;" horiz-adv-x="488" 
d="M24 -20l-14 49q45 13 82.5 48t43.5 72q-52 0 -84 28t-32 72q0 43 28 72t72 29q55 0 89.5 -36.5t34.5 -101.5q0 -83 -66.5 -149.5t-153.5 -82.5zM258 -20l-14 49q45 13 82.5 48t43.5 72q-52 0 -84 28t-32 72q0 43 28 72t72 29q55 0 89.5 -36.5t34.5 -101.5
q0 -83 -66.5 -149.5t-153.5 -82.5z" />
    <glyph glyph-name="dagger" unicode="&#x2020;" horiz-adv-x="370" 
d="M200 -220h-30v29q0 31 -40 182.5t-40 207.5q0 77 60 96v35l-140 -30v80h140l-10 200h90l-10 -200h140v-80l-140 30v-35q60 -19 60 -96q0 -56 -40 -207.5t-40 -182.5v-29z" />
    <glyph glyph-name="daggerdbl" unicode="&#x2021;" horiz-adv-x="370" 
d="M200 -220h-30v29q0 22 -40 114t-40 134q0 77 60 96v46l-140 -30v80h140v111l-140 -30v80h140l-10 170h90l-10 -170h140v-80l-140 30v-111h140v-80l-140 30v-46q60 -19 60 -96q0 -42 -40 -134.5t-40 -113.5v-29z" />
    <glyph glyph-name="bullet" unicode="&#x2022;" horiz-adv-x="270" 
d="M135 160q-48 0 -81.5 33.5t-33.5 81.5t33.5 81.5t81.5 33.5t81.5 -33.5t33.5 -81.5t-33.5 -81.5t-81.5 -33.5z" />
    <glyph glyph-name="ellipsis" unicode="&#x2026;" horiz-adv-x="872" 
d="M145 -20q-48 0 -81.5 33.5t-33.5 81.5t33.5 81.5t81.5 33.5t81.5 -33.5t33.5 -81.5t-33.5 -81.5t-81.5 -33.5zM436 -20q-48 0 -81.5 33.5t-33.5 81.5t33.5 81.5t81.5 33.5t81.5 -33.5t33.5 -81.5t-33.5 -81.5t-81.5 -33.5zM727 -20q-48 0 -81.5 33.5t-33.5 81.5
t33.5 81.5t81.5 33.5t81.5 -33.5t33.5 -81.5t-33.5 -81.5t-81.5 -33.5z" />
    <glyph glyph-name="perthousand" unicode="&#x2030;" horiz-adv-x="994" 
d="M80 0h-70l481 593v2q-34 -24 -76 -24q-36 0 -72 17q10 -33 10 -66q0 -79 -44.5 -128.5t-126.5 -49.5t-127 49.5t-45 128.5t45 128.5t127 49.5q55 0 106 -30q2 -1 25.5 -19.5t50.5 -31.5t55 -13q71 0 111 43l23 31h78zM460 -20q-82 0 -127 49.5t-45 128.5t45 128.5
t127 49.5t126.5 -49.5t44.5 -128.5t-44.5 -128.5t-126.5 -49.5zM460 26q30 0 30 132t-30 132t-30 -132t30 -132zM182 390q30 0 30 132t-30 132t-30 -132t30 -132zM813 -20q-82 0 -127 49.5t-45 128.5t45 128.5t127 49.5t126.5 -49.5t44.5 -128.5t-44.5 -128.5t-126.5 -49.5z
M813 26q30 0 30 132t-30 132t-30 -132t30 -132z" />
    <glyph glyph-name="guilsinglleft" unicode="&#x2039;" horiz-adv-x="193" 
d="M161 97l-151 172v46l151 172q22 -8 22 -32q0 -23 -21.5 -63.5t-43.5 -69.5l-21 -30q10 -13 24 -33t38 -63.5t24 -66.5q0 -11 -5.5 -19t-11.5 -10z" />
    <glyph glyph-name="guilsinglright" unicode="&#x203a;" horiz-adv-x="193" 
d="M183 269l-151 -172q-22 8 -22 32q0 23 21.5 63.5t42.5 69.5l22 30q-10 13 -24 33t-38 63.5t-24 66.5q0 11 5.5 19t10.5 10l6 3l151 -172v-46z" />
    <glyph glyph-name="fraction" unicode="&#x2044;" horiz-adv-x="220" 
d="M-25 0h-60l326 680h60z" />
    <glyph glyph-name="Euro" unicode="&#x20ac;" horiz-adv-x="590" 
d="M585 210v-185q-74 -45 -190 -45q-138 0 -223.5 76.5t-105.5 203.5h-66v50h60q0 49 1 60h-61v50h68q23 124 110 202t217 78q111 0 185 -45v-185h-39q-28 94 -52.5 132t-69.5 38q-101 0 -116 -220h152l-18 -50h-136v-60h115l-18 -50h-95q13 -220 116 -220q45 0 72 39.5
t55 130.5h39z" />
    <glyph glyph-name="alt_numbersign" unicode="&#x2116;" horiz-adv-x="1159" 
d="M120 160v420q0 28 -17.5 44t-42.5 16h-20v40h284l219 -382h2v322q0 86 36 128t95 42q35 0 57.5 -22.5t22.5 -55.5q-71 -16 -113.5 -77t-42.5 -158v-477h-113l-310 535h-2v-404q0 -70 -27.5 -110.5t-80.5 -40.5q-35 0 -58.5 20.5t-23.5 56.5q0 32 22 49.5t46 17.5
q14 -6 28 -6q17 0 28 11.5t11 30.5zM1134 466q0 -103 -64 -168.5t-173 -65.5t-173.5 65.5t-64.5 168.5t64.5 168.5t173.5 65.5t173 -65.5t64 -168.5zM897 281q27 0 40.5 40t13.5 145t-13.5 145t-40.5 40t-40.5 -40t-13.5 -145t13.5 -145t40.5 -40zM1076 0h-368v50h368v-50z
M1076 95h-368v50h368v-50z" />
    <glyph glyph-name="trademark" unicode="&#x2122;" horiz-adv-x="671" 
d="M639 347h-51v290h-2l-104 -290h-37l-109 290h-2v-290h-40v333h75l98 -266h1l97 266h74v-333zM156 347h-52v292h-92v41h236v-41h-92v-292z" />
    <glyph glyph-name="partialdiff" unicode="&#x2202;" horiz-adv-x="619" 
d="M115 725l12 35q213 -40 347.5 -173.5t134.5 -331.5q0 -120 -82 -197.5t-217 -77.5t-217.5 77.5t-82.5 197.5q0 121 84.5 198t228.5 77q-22 53 -87.5 114.5t-120.5 80.5zM310 37q32 0 48 47t16 171t-16 171t-48 47t-48 -47t-16 -171q0 -123 16 -170.5t48 -47.5z" />
    <glyph glyph-name="product" unicode="&#x220f;" horiz-adv-x="748" 
d="M593 240l-62 -90q56 -53 95 -53q24 0 44 10.5t29.5 20.5t24.5 31l29 -15q-93 -164 -239 -164q-53 0 -112 40q-75 -40 -175 -40q-106 0 -161.5 55t-55.5 140q0 61 39.5 113t111.5 87q-20 62 -20 109q0 96 58.5 156t161.5 60q101 0 154.5 -43t53.5 -93q0 -36 -21 -62
t-65 -26q-18 0 -32 6.5t-22 15t-13.5 24.5t-8 26.5t-5.5 29.5q-1 5 -2.5 15t-2.5 14t-3 11t-4.5 10t-6.5 6.5t-9.5 5t-12.5 1.5q-37 0 -37 -73q0 -83 53 -194.5t123 -191.5q25 43 25 72q0 25 -17 40.5t-35 15.5h-13v40h245v-40h-15q-49 0 -97 -70zM342 71q-102 102 -164 257
q-21 -27 -21 -69q0 -73 44.5 -131t105.5 -58q24 0 35 1z" />
    <glyph glyph-name="summation" unicode="&#x2211;" horiz-adv-x="640" 
d="M519 64v-32q-62 -52 -194 -52q-99 0 -158.5 48t-59.5 135q0 99 86.5 189t218.5 151v2h-170q-84 0 -131 -25t-62 -95h-39l80 295h550q-72 -72 -115.5 -120t-89.5 -108.5t-67.5 -115.5t-21.5 -109q0 -73 37 -120.5t100 -47.5q19 0 36 5z" />
    <glyph glyph-name="minus" unicode="&#x2212;" horiz-adv-x="350" 
d="M330 330h-310v70h310v-70z" />
    <glyph glyph-name="radical" unicode="&#x221a;" horiz-adv-x="569" 
d="M256 383h2q12 27 42 45.5t73 18.5q70 0 123.5 -53t53.5 -141q0 -127 -78 -215t-176 -88q-54 0 -83 23t-29 54q0 19 12 31.5t30 12.5q12 0 23 -8t13 -19q10 -41 41 -41q19 0 32 13.5t13 31.5q0 65 -126 79q-58 6 -93.5 36.5t-35.5 78.5q0 65 40.5 94t99.5 29v2
q-108 58 -169.5 141.5t-61.5 154.5q0 20 11 33.5t28 13.5q20 0 31 -12t11 -29q0 -121 67 -204h2q-8 32 -8 51q0 57 38.5 94t88.5 37q45 0 66 -22.5t21 -47.5q0 -21 -15.5 -36.5t-36.5 -17.5q-15 35 -55 35q-33 0 -50.5 -18.5t-17.5 -48.5q0 -59 73 -108zM388 25h2
q49 28 85 89t36 139q0 66 -38 102.5t-89 36.5q-56 0 -75 -40q105 -39 105 -191q0 -73 -26 -136z" />
    <glyph glyph-name="infinity" unicode="&#x221e;" horiz-adv-x="527" 
d="M342 362v-7q66 -3 103 -27.5t37 -62.5q0 -50 -62 -75q8 -17 8 -47q0 -49 -23.5 -84t-66.5 -39q2 -6 2 -12q0 -19 -14 -19q-13 0 -13 19q0 6 2 12q-43 4 -67 39t-24 84q0 26 9 47q-62 25 -62 75q0 38 36.5 62.5t103.5 27.5v7q0 37 -5 59q-78 4 -124.5 46t-64.5 99
q-45 -28 -45 -110q-68 0 -68 61q0 44 38.5 82t102.5 38q75 0 123.5 -47.5t65.5 -133.5q48 4 78 36.5t30 74.5q0 46 -26.5 74t-75.5 28q-25 9 -25 37q0 17 14 28.5t34 11.5q50 0 90 -45t40 -109q0 -68 -45 -115t-109 -55q3 -28 3 -60zM143 576q38 -112 157 -121
q-15 62 -48.5 93.5t-80.5 31.5q-17 0 -28 -4zM408 210q13 9 13 24q0 46 -95 46q-43 0 -68.5 -14t-25.5 -32q0 -15 12 -24q27 33 82 33t82 -33z" />
    <glyph glyph-name="integral" unicode="&#x222b;" horiz-adv-x="661" 
d="M189 38l65 528q10 83 79 133.5t159 50.5q99 0 148 -34.5t49 -90.5q0 -37 -25 -64.5t-66 -27.5q-35 0 -54.5 17t-19.5 45q5 17 5 39q0 53 -54 53q-29 0 -43 -14.5t-14 -35.5q0 -34 29 -82t25 -83l-65 -528q-10 -83 -79 -133.5t-159 -50.5q-99 0 -148 34.5t-49 90.5
q0 37 25 64.5t66 27.5q35 0 54.5 -17t19.5 -45q-5 -17 -5 -39q0 -53 54 -53q29 0 43 14.5t14 35.5q0 34 -29 82t-25 83z" />
    <glyph glyph-name="approxequal" unicode="&#x2248;" horiz-adv-x="569" 
d="M334 367v-2q59 0 99.5 -29t40.5 -94q0 -48 -35.5 -78.5t-93.5 -36.5q-126 -14 -126 -79q0 -18 13 -31.5t32 -13.5q31 0 41 41q2 11 13 19t23 8q18 0 30 -12.5t12 -31.5q0 -31 -29 -54t-83 -23q-98 0 -174 87.5t-76 214.5q0 84 52.5 139.5t120.5 55.5q43 0 73 -18.5
t42 -45.5h2q73 49 73 108q0 30 -17.5 48.5t-50.5 18.5q-40 0 -55 -35q-21 2 -36.5 17.5t-15.5 36.5q0 25 21 47.5t66 22.5q50 0 88.5 -37t38.5 -94q0 -19 -8 -51h2q67 83 67 204q0 17 11 29t31 12q17 0 28 -13.5t11 -33.5q0 -71 -61.5 -154.5t-169.5 -141.5z" />
    <glyph glyph-name="notequal" unicode="&#x2260;" horiz-adv-x="1002" 
d="M693 237q-18 -47 -61 -78.5t-99 -31.5q-43 0 -84.5 21.5t-73.5 52.5t-60.5 62t-56.5 52.5t-51 21.5q-19 0 -30.5 -11t-11.5 -28l6 -28q0 -23 -22 -45.5t-55 -22.5q-37 0 -60.5 24t-23.5 58q0 55 47 97t114 42q68 0 138 -56q18 48 60.5 79t99.5 31q43 0 84.5 -21.5
t73.5 -52.5t60.5 -62t56.5 -52.5t51 -21.5q19 0 30.5 11t11.5 28l-6 28q0 23 22 45.5t55 22.5q37 0 60.5 -24t23.5 -58q0 -55 -47 -97t-114 -42q-70 0 -138 56zM642 283q-7 7 -34 35.5t-37 37.5t-31 26t-37.5 23t-33.5 6q-45 0 -75.5 -25t-34.5 -66q7 -7 34.5 -35
t37.5 -37.5t31 -26t37.5 -22.5t33.5 -6q44 0 74.5 25t34.5 65z" />
    <glyph glyph-name="lessequal" unicode="&#x2264;" horiz-adv-x="792" 
d="M456 275v-2q27 -12 45.5 -42t18.5 -73q0 -68 -57.5 -120.5t-141.5 -52.5q-128 0 -216 76t-88 174q0 54 24 83t55 29q19 0 31.5 -12t12.5 -30q0 -12 -8 -23t-19 -13q-41 -10 -41 -41q0 -19 12.5 -32t29.5 -13q65 0 79 126q6 57 37.5 93t80.5 36q66 0 96.5 -41t30.5 -99h2
q58 108 141.5 169.5t154.5 61.5q20 0 33.5 -11t13.5 -28q0 -20 -12 -31t-29 -11q-121 0 -204 -67v-2q32 8 51 8q57 0 95 -37t38 -86q0 -45 -23 -67t-47 -22q-21 0 -38 14.5t-18 35.5q35 15 35 55q0 33 -18.5 50.5t-48.5 17.5q-59 0 -108 -73z" />
    <glyph glyph-name="greaterequal" unicode="&#x2265;" horiz-adv-x="792" 
d="M338 278v2q-49 73 -108 73q-30 0 -48.5 -17.5t-18.5 -50.5q0 -40 35 -55q-1 -21 -18 -35.5t-38 -14.5q-24 0 -47 22t-23 67q0 49 38 86t95 37q19 0 51 -8v2q-83 67 -204 67q-17 0 -29 11t-12 31q0 17 13.5 28t33.5 11q71 0 154.5 -61.5t141.5 -169.5h2q0 58 30.5 99
t96.5 41q49 0 80.5 -36t37.5 -93q14 -126 79 -126q17 0 29.5 13t12.5 32q0 31 -41 41q-11 2 -19 13t-8 23q0 18 12.5 30t31.5 12q31 0 55 -29t24 -83q0 -98 -88 -174t-216 -76q-84 0 -141.5 52.5t-57.5 120.5q0 43 18.5 73t45.5 42z" />
    <glyph glyph-name="alt_seven" horiz-adv-x="640" 
d="M519 64v-32q-62 -52 -194 -52q-99 0 -158.5 48t-59.5 135q0 99 86.5 189t218.5 151v2h-170q-84 0 -131 -25t-62 -95h-39l80 295h550q-72 -72 -115.5 -120t-89.5 -108.5t-67.5 -115.5t-21.5 -109q0 -73 37 -120.5t100 -47.5q19 0 36 5z" />
    <glyph glyph-name="apple" horiz-adv-x="569" 
d="M334 367v-2q59 0 99.5 -29t40.5 -94q0 -48 -35.5 -78.5t-93.5 -36.5q-126 -14 -126 -79q0 -18 13 -31.5t32 -13.5q31 0 41 41q2 11 13 19t23 8q18 0 30 -12.5t12 -31.5q0 -31 -29 -54t-83 -23q-97 0 -172.5 88.5t-75.5 216.5q0 84 51.5 138t119.5 54q43 0 73 -18.5
t42 -45.5h2q73 49 73 108q0 30 -17.5 48.5t-50.5 18.5q-40 0 -55 -35q-21 2 -36.5 17.5t-15.5 36.5q0 25 21 47.5t66 22.5q50 0 88.5 -37t38.5 -94q0 -19 -8 -51h2q67 83 67 204q0 17 11 29t31 12q17 0 28 -13.5t11 -33.5q0 -71 -61.5 -154.5t-169.5 -141.5zM177 25h2
q-23 56 -23 136q0 153 102 191q-19 40 -75 40q-49 0 -85 -38t-36 -99q0 -76 34 -139.5t81 -90.5z" />
    <glyph glyph-name="alt_ampersand" horiz-adv-x="748" 
d="M593 240l-62 -90q56 -53 95 -53q24 0 44 10.5t29.5 20.5t24.5 31l29 -15q-93 -164 -239 -164q-53 0 -112 40q-75 -40 -175 -40q-106 0 -161.5 55t-55.5 140q0 61 39.5 113t111.5 87q-20 62 -20 109q0 96 58.5 156t161.5 60q101 0 154.5 -43t53.5 -93q0 -36 -21 -62
t-65 -26q-18 0 -32 6.5t-22 15t-13.5 24.5t-8 26.5t-5.5 29.5q-1 5 -2.5 15t-2.5 14t-3 11t-4.5 10t-6.5 6.5t-9.5 5t-12.5 1.5q-37 0 -37 -73q0 -83 53 -194.5t123 -191.5q25 43 25 72q0 25 -17 40.5t-35 15.5h-13v40h245v-40h-15q-49 0 -97 -70zM342 71q-102 102 -164 257
q-21 -27 -21 -69q0 -73 44.5 -131t105.5 -58q24 0 35 1z" />
    </font>
</defs>
</svg>
